<svg width="53" height="51" viewBox="0 0 53 51" fill="none" xmlns="http://www.w3.org/2000/svg">
<path d="M6.35621 38.784C6.96865 37.3257 6.13481 36.6769 4.59651 36.0482C1.05124 34.6128 -0.673956 30.8465 0.243272 27.0572C0.429956 26.3701 0.447713 25.6483 0.29503 24.9529C-0.685455 20.7215 1.31002 16.915 5.4246 15.4796C6.57473 15.0777 6.43384 14.5007 6.33895 13.674C5.87028 9.69232 7.59547 6.28193 11.0085 4.84658C12.2669 4.34016 13.388 3.54448 14.2806 2.52419C17.1214 -0.659417 22.1158 -0.851754 25.5317 2.062C26.3943 2.7969 26.8112 2.75384 27.6163 2.00459C30.9661 -1.11012 36.7742 -0.467081 39.4051 3.24186C39.7444 3.71553 40.0722 4.13177 40.6617 4.34995C45.6503 6.17858 47.3382 9.60907 46.6998 13.9151C46.5733 14.7763 46.812 15.1466 47.6487 15.4911C52.091 17.3198 53.7645 20.5981 52.6805 25.2285C52.5376 25.9308 52.5573 26.6564 52.738 27.35C53.7875 32.0407 50.9697 35.3707 47.7148 36.3697C46.7142 36.6769 46.372 37.0328 46.6136 38.1696C47.4762 42.2633 44.6785 46.2219 41.0757 47.1463C40.1038 47.3961 39.385 47.9444 38.6719 48.6132C35.3567 51.7193 30.7821 51.8026 27.4007 48.8113C26.7825 48.2659 26.4029 48.1855 25.733 48.7855C22.2222 51.9117 17.3112 51.682 14.0218 48.286C13.5752 47.7898 12.9938 47.4338 12.3484 47.2611C8.43794 46.2707 6.15781 43.1388 6.35621 38.784ZM37.4384 27.9729C37.9847 26.9021 37.9445 26.2505 36.5442 25.7998C33.0277 24.6372 30.9833 21.511 31.199 18.0116C31.4117 14.5668 33.8098 11.7908 37.3148 10.9038C39.04 10.4674 40.239 10.8205 40.5323 11.8511C40.8543 12.9764 40.2447 13.5391 38.2119 13.9955C36.3142 14.4261 35.0203 15.5457 34.589 17.4403C34.1778 19.2546 34.6321 20.8852 36.1618 22.0507C37.6914 23.2162 39.3764 23.4114 41.1188 22.4181C42.3408 21.7205 43.6491 21.2411 45.0695 21.2698C46.0155 21.2899 46.7717 21.7119 46.8263 22.7827C46.881 23.7702 46.2513 24.241 45.357 24.419C45.1241 24.4678 44.8797 24.4678 44.644 24.508C41.8319 24.9788 40.2821 27.1663 40.7795 29.9623C41.1447 32.0149 43.2322 33.7229 45.2938 33.6598C47.7378 33.5823 49.4544 31.9517 49.6499 29.5059C49.2272 29.3135 48.9138 29.6264 48.6004 29.7929C47.6176 30.2982 46.5286 30.5628 45.4232 30.5652C44.5146 30.5652 43.8073 30.1116 43.744 29.1298C43.6807 28.148 44.2472 27.5308 45.2708 27.4074C45.5066 27.3787 45.7481 27.3787 45.9839 27.3414C47.7694 27.0543 49.3796 25.4984 49.785 23.6697C50.1502 22.0105 49.4026 20.2795 47.8615 19.2116C45.3571 17.4891 42.9734 17.5465 40.3252 19.4986C39.3879 20.1933 38.5282 20.2278 37.8065 19.3436C37.0848 18.4594 37.5189 17.6642 38.3068 17.004C39.4065 16.0779 40.7037 15.4151 42.0993 15.0663C42.6744 14.9141 43.2121 14.7792 43.3903 14.0988C44.3881 10.3411 41.8549 7.16037 38.5023 7.39863C36.711 7.52782 35.1353 8.08186 34.0024 9.57462C33.3612 10.4358 32.4986 10.7085 31.6331 10.054C30.69 9.3421 30.8511 8.39189 31.498 7.5192C31.8344 7.06276 32.2283 6.64077 32.5964 6.20442L35.8254 4.42171C35.0281 3.68725 33.9817 3.28182 32.8969 3.28715C31.8122 3.29248 30.7698 3.70816 29.9798 4.45042L29.9597 4.46478C28.4818 5.41785 27.8377 6.72115 28.2575 8.48376C28.2575 8.6761 28.2575 8.86843 28.2575 9.0579C28.2288 13.5017 28.1684 17.9427 28.1799 22.3837C28.1799 25.5242 29.4968 26.9423 32.6625 27.4304C33.643 27.5825 34.5171 27.9701 34.3877 29.1155C34.2583 30.2609 33.3612 30.6857 32.2916 30.5795C31.2892 30.5091 30.3113 30.2377 29.4163 29.7815C28.5249 29.2934 28.131 29.4944 28.1396 30.5709C28.1713 34.8224 28.1655 39.0739 28.1684 43.3283C28.1684 45.2258 28.9447 46.6669 30.7303 47.419C32.6453 48.2286 34.4538 48.0305 36.1071 46.6813C38.0624 45.0938 38.3585 43.1446 37.4959 40.8939C37.0991 39.8691 37.2084 38.9419 38.3585 38.54C39.5777 38.1122 40.0837 38.9562 40.4403 39.9294C40.7644 40.7279 40.965 41.571 41.0354 42.4298C41.0527 42.7857 40.9693 43.2651 41.4552 43.3886C41.8923 43.5005 42.1482 43.1015 42.407 42.8517C43.0515 42.1679 43.4663 41.3004 43.5936 40.3701C43.7209 39.4397 43.5544 38.4929 43.1172 37.6615C41.8032 35.2846 39.2326 34.5038 36.4062 35.6032C34.6609 36.2865 34.0685 37.1591 33.9938 39.0222C33.9507 40.1447 34.2324 41.1982 34.5056 42.2633C34.7385 43.1646 34.5257 43.9082 33.5999 44.2526C32.582 44.6316 31.9235 44.0862 31.5383 43.2192C31.1148 42.1445 30.8935 41.001 30.8856 39.8461C30.6987 36.4386 32.1651 33.9928 35.0548 32.6837C35.9519 32.279 37.3752 32.4971 37.7001 31.6273C38.025 30.7575 37.5477 29.5891 37.4125 28.5499C37.424 28.3576 37.4327 28.1653 37.4384 27.9729ZM2.93457 29.2073C3.46363 30.1977 3.46363 30.9843 3.95531 31.6273C5.30384 33.3928 7.4632 34.0961 9.41842 33.3354C10.3691 32.9823 11.1752 32.3236 11.7098 31.463C12.2444 30.6024 12.4771 29.5887 12.3714 28.5815C12.1298 26.3768 10.5427 24.8037 8.22804 24.5051C7.14404 24.3673 6.19231 24.0774 6.25845 22.7368C6.31308 21.6689 7.21017 21.1809 8.64208 21.3186C9.96186 21.445 11.1034 22.0392 12.2765 22.5904C14.226 23.5004 16.161 23.0784 17.4866 21.5454C18.1388 20.8056 18.5355 19.8759 18.6178 18.8937C18.7001 17.9115 18.4638 16.9289 17.9437 16.0911C17.038 14.5983 15.5975 14.0816 13.9701 13.8692C13.0672 13.7457 12.4346 13.2434 12.5123 12.2472C12.5899 11.2511 13.1966 10.6942 14.2375 10.7487C14.8099 10.7572 15.3801 10.8226 15.9396 10.9439C17.5994 11.3675 19.0766 12.3174 20.1494 13.6509C21.2221 14.9844 21.8325 16.6294 21.8887 18.3389C22.0123 21.6315 19.8415 24.7147 16.5061 25.817C15.563 26.1299 15.1202 26.506 15.4278 27.5394C15.7255 28.6571 15.6965 29.8365 15.3445 30.9384C15.1547 31.6187 15.2985 31.9546 16.0805 32.1096C17.6492 32.3745 19.1013 33.1059 20.2469 34.2081C22.4925 36.4185 22.0123 39.2117 21.9059 41.8815C21.8369 43.6355 20.8766 44.511 19.7121 44.3014C18.5936 44.1005 18.3147 43.1991 18.8063 41.3532C19.8328 37.4721 17.9236 35.0377 13.9183 35.1439C13.0459 35.1335 12.1908 35.3874 11.4659 35.8723C10.741 36.3571 10.1805 37.0501 9.85834 37.8596C9.48032 38.6428 9.34329 39.5204 9.46458 40.3813C9.58587 41.2423 9.96004 42.048 10.5398 42.6967C10.8273 43.0326 11.1149 43.4402 11.5749 43.3656C12.1701 43.2737 11.9688 42.6795 12.035 42.3006C12.2219 41.2642 12.3656 40.2164 12.8976 39.2806C13.2857 38.5802 13.9097 38.2357 14.7033 38.4768C15.0571 38.5711 15.3624 38.7953 15.558 39.1045C15.7536 39.4136 15.8252 39.7851 15.7585 40.1447C15.6445 40.7533 15.4899 41.3537 15.2956 41.9417C14.5882 44.7005 16.3077 47.1664 19.3469 47.7664C22.0928 48.3032 24.7899 46.509 24.8905 43.7474C25.0544 39.3064 24.9452 34.8482 24.9452 30.4159C24.9452 29.6006 24.695 29.2676 23.8209 29.724C22.8828 30.213 21.8453 30.482 20.7874 30.5106C19.7437 30.5537 18.7977 30.3441 18.6626 29.1126C18.5274 27.8811 19.4389 27.6112 20.3878 27.4218C20.5287 27.3959 20.6753 27.3959 20.8162 27.3729C23.3091 26.9768 24.8675 25.3118 24.8905 22.8028C24.9336 17.8336 24.8761 12.8644 24.8905 7.89239C24.8905 6.00347 23.9474 4.73463 22.4149 3.82749C20.7673 2.85719 18.4556 3.15287 17.3169 4.47626C18.8063 5.16235 20.2641 5.87429 21.3165 7.17471C22.0325 8.05889 22.5615 8.95455 21.5436 9.94207C20.7644 10.7028 19.9306 10.4789 18.9156 9.30477C17.4377 7.59958 14.2633 6.8532 12.3397 7.76034C10.2724 8.73637 9.23153 10.8894 9.55644 13.3926C9.67145 14.2998 10.0251 14.8653 10.9941 15.072C12.3995 15.3983 13.7018 16.0681 14.7838 17.0212C15.6147 17.7217 16.0202 18.5656 15.2179 19.4986C14.4847 20.3598 13.625 20.1531 12.794 19.5388C12.3099 19.1498 11.7878 18.8103 11.2356 18.5255C8.93537 17.469 6.79901 18.0059 4.90992 19.4728C3.55277 20.5292 2.92307 22.0105 3.31699 23.7961C3.8518 26.2333 5.53961 27.2093 7.85712 27.4275C8.7341 27.5107 9.29478 28.0189 9.32929 28.8973C9.36379 30.1346 8.55583 30.5307 7.44883 30.5393C5.93066 30.5537 4.60226 29.8819 2.92882 29.2073H2.93457Z" fill="#00538E"/>
</svg>
