<svg width="559" height="478" viewBox="0 0 559 478" fill="none" xmlns="http://www.w3.org/2000/svg">
<path d="M249.476 477.489C249.059 477.495 248.644 477.43 248.248 477.299C243.249 475.715 238.721 472.916 235.069 469.153C233.893 468.028 232.804 466.852 231.749 465.694C226.993 460.626 222.098 455.403 213.572 452.843C210.101 451.902 206.512 451.471 202.918 451.564C201.603 451.564 200.289 451.564 199.061 451.564C192.783 451.719 187.369 451.858 182.752 448.606C178.393 445.493 169.573 435.825 165.82 431.311C162.793 427.696 161.704 423.528 160.631 419.204V419.066C159.667 414.743 158.052 410.591 155.841 406.752C154.319 404.313 152.589 401.944 150.808 399.54C150.496 399.116 150.273 398.634 150.15 398.122C149.88 396.893 149.539 395.68 149.13 394.49C147.124 388.454 143.578 384.528 140.154 380.74L140.033 380.602C138.388 378.866 136.846 377.035 135.415 375.119C135.144 374.757 134.945 374.346 134.827 373.909C134.329 372.136 134.016 370.316 133.893 368.478L133.374 365.676L131.939 365.348C131.087 365.154 130.329 364.671 129.794 363.981L112.24 341.377C111.114 341.564 109.959 341.413 108.919 340.944C104.855 339.111 104.388 333.577 104.388 329.581C104.357 311.243 107.038 293.001 112.343 275.448C115.266 265.832 114.609 256.907 110.493 250.266C107.397 245.357 102.61 241.752 97.0373 240.131C96.3004 239.891 95.6548 239.431 95.1878 238.812C94.7208 238.194 94.4548 237.447 94.4257 236.672C94.397 231.42 94.68 226.17 95.2732 220.951V220.726C96.7087 205.161 98.3517 187.416 87.1099 180.307C81.6792 176.848 72.0113 177.091 64.2458 177.246L59.5761 177.333H58.9016C49.6833 177.333 44.097 181.12 38.7183 185.34L38.4588 185.531C35.3759 188.038 32.0091 190.174 28.4277 191.895C21.3713 195.25 16.5633 195.354 14.1074 192.276C12.62 190.391 11.7725 187.001 16.1828 181.553L17.9123 179.547L16.4422 177.506C14.0771 174.313 10.9813 171.733 7.41417 169.982C3.28064 167.682 1.75868 166.402 0.997694 161.127C0.0291694 154.399 2.43318 147.395 6.86072 144.074C7.04371 143.933 7.24077 143.812 7.44876 143.711L8.48646 143.192C9.87007 136.672 14.3322 135.998 22.7549 135.323C25.8193 135.145 28.8628 134.706 31.8521 134.009C38.6664 132.158 41.7103 130.774 41.8141 127.523C41.8141 124.6 39.7906 123.407 34.6712 121.66C29.5519 119.913 28.1164 119.066 27.3035 118.305C26.1061 117.137 25.2338 115.678 24.7728 114.07C24.3118 112.463 24.278 110.763 24.6747 109.138C24.74 108.874 24.8209 108.614 24.9168 108.36C25.1752 107.583 25.6795 106.911 26.3535 106.446C27.0275 105.982 27.8345 105.749 28.6525 105.783C31.2094 105.866 33.7468 105.313 36.0375 104.175C41.226 101.563 42.1427 99.4703 43.215 96.0113V95.8556C43.6949 94.2537 44.2724 92.6827 44.9445 91.1514C46.9161 86.7238 47.2274 86.1531 50.133 83.8701L51.8625 82.4865C58.452 77.298 65.6986 74.8421 73.2738 72.2997C77.4247 70.9161 81.489 69.5325 85.5706 67.7684C87.0079 67.0953 88.4105 66.3507 89.7733 65.5374C95.6191 62.1821 97.4178 61.5422 98.8533 61.4903C99.2261 61.4774 99.5989 61.5182 99.9601 61.6114C102.191 62.2167 103.419 64.05 105.287 66.5751C106.417 68.3268 107.727 69.9557 109.196 71.435C115.284 77.3326 123.775 80.3074 131.264 82.9189H131.524C136.765 84.4934 141.786 86.7249 146.467 89.5602C147.996 90.8474 149.234 92.445 150.099 94.2472L150.202 94.4029C151.52 97.1908 153.556 99.5783 156.1 101.321C160.32 103.829 165.007 103.431 169.14 103.05C171.485 102.701 173.869 102.701 176.214 103.05C181.939 104.278 186.591 107.997 191.486 111.923C197.833 117.025 204.422 122.3 214.194 123.251L216.823 123.51L217.688 121.037C219.061 116.828 220.142 112.528 220.922 108.17L221.181 106.855C221.752 103.967 222.34 100.992 223.188 98.2078L219.192 92.0334C216.519 92.037 213.849 92.2277 211.202 92.6041C210.285 92.7252 209.334 92.829 208.418 92.9155C207.812 92.9733 207.202 92.884 206.639 92.6551C206.076 92.4263 205.577 92.0646 205.183 91.601C204.781 91.1318 204.498 90.5719 204.36 89.9695C204.221 89.367 204.231 88.7399 204.388 88.142C204.966 85.9016 206.013 83.8093 207.459 82.0028C208.905 80.1962 210.717 78.7166 212.776 77.6612C215.885 76.0653 219.427 75.5196 222.873 76.1057C226.318 76.6919 229.481 78.3784 231.887 80.9127C233.05 82.1969 234.023 83.6413 234.775 85.2019C236.227 88.521 238.707 91.2858 241.849 93.0884C247.954 96.2361 260.199 94.0051 266.789 92.7944C268.898 92.4312 270.939 92.1545 272.859 91.8951C284.966 90.1655 294.288 87.9172 295.516 75.2226L295.758 72.6802L293.561 71.8674C288.528 69.9476 283.184 70.1379 277.373 70.1379C273.014 70.416 268.637 70.09 264.367 69.1693C256.602 66.9382 246.692 56.1634 244.72 47.8272C244.488 47.0634 244.424 46.2586 244.531 45.4677C244.639 44.6767 244.915 43.9183 245.343 43.244C248.49 38.7127 258.089 36.7583 274.744 34.7175H274.917L276.733 34.51L279.639 34.1468C280.334 34.0857 281.033 34.2189 281.657 34.5315C282.281 34.8441 282.807 35.3239 283.174 35.9175C283.542 36.511 283.737 37.1949 283.739 37.893C283.741 38.5912 283.549 39.2761 283.184 39.8715C282.355 41.0998 281.61 42.3825 280.953 43.711L279.051 47.6024L283.271 48.4498C293.406 50.4388 296.986 47.9829 298.836 45.9766C298.937 45.8586 299.047 45.7487 299.165 45.648C299.235 45.5055 299.322 45.3719 299.424 45.2502C300.695 43.4629 301.697 41.4993 302.399 39.4218C303.427 35.8085 305.446 32.5553 308.228 30.0306C309.853 28.647 311.877 26.9002 314.817 27.7649C316.65 28.3184 318.017 29.5982 320.991 32.4346C324.848 36.153 330.123 41.2032 337.716 39.8888L340.379 39.4218L340.466 36.7584C340.76 29.2177 341.693 23.6314 345.36 18.979C349.027 14.3266 354.596 11.3519 363.243 7.42588C378.584 0.50785 396.381 -0.04559 413.295 0.0235903C428.031 0.0235903 429.95 1.16506 440.483 9.88178C450.151 17.9067 462.828 17.3014 476.232 16.6442H476.336C478.826 16.5058 481.351 16.3156 484.032 16.0907L485.969 15.9351C493.61 15.0462 501.317 14.8783 508.989 15.4335C518.172 16.4193 520.282 18.9963 523.845 24.2367C526.103 27.8138 528.838 31.0664 531.974 33.9046C535.623 37.1561 541.365 38.5225 546.433 39.7331H546.536C552.642 41.1686 555.616 42.0679 557.138 43.6418L557.45 44.005C560.407 48.0175 557.813 51.2343 554.215 55.6965C553.368 56.7515 552.486 57.8929 551.69 58.9825L550.168 61.179C545.862 67.2323 542.161 72.4727 540.777 81.6564C540.293 84.8559 540.103 87.9864 539.912 91.013V91.2033C539.85 96.2751 539.016 101.308 537.439 106.129C535.875 110.039 533.965 113.801 531.732 117.371C529.79 120.505 528.056 123.763 526.543 127.125C524.096 133.21 522.546 139.619 521.943 146.15V146.236C520.438 157.807 519.072 163.531 504.388 167.924C502.659 168.443 500.722 169.135 498.767 169.861C496.682 170.705 494.544 171.416 492.368 171.989C491.341 172.208 490.301 172.364 489.255 172.456L488.615 172.542C483.738 173.095 479.812 173.649 477.564 175.119C472.686 178.319 470.646 182.988 468.916 187.087C467.481 190.546 465.993 194.005 461.808 196.029C461.312 196.251 460.777 196.374 460.234 196.392C458.44 196.285 456.65 196.659 455.048 197.473C453.446 198.288 452.09 199.515 451.119 201.027C449.234 203.5 448.646 207.461 448.024 211.646V211.836C447.804 214.024 447.346 216.182 446.657 218.27C443.389 225.863 440.172 229.823 431.593 230.377C430.723 230.436 429.858 230.194 429.146 229.689C428.434 229.185 427.918 228.45 427.685 227.61C426.093 221.781 422.807 216.662 419.625 211.715C415.284 204.918 410.787 197.879 410.666 188.886C410.493 174.116 413.468 161.318 416.616 147.758C417.965 142.016 419.141 136.845 420.161 131.518C421.77 121.971 422.496 105.662 417.982 99.5741C413.779 93.9532 408.781 94.3855 404.751 94.6796C402.445 94.9994 400.099 94.888 397.833 94.351C388.667 91.7913 388.511 84.5101 389.047 72.8532C389.186 69.5671 389.324 66.16 389.151 63.0642L388.978 60.4699L386.419 59.9856C377.494 58.3426 371.406 66.9901 364.921 77.6093L364.246 78.6989C363.244 80.4172 362.141 82.0747 360.943 83.6626C354.492 91.9815 350.652 93.0884 337.923 96.7031L316.339 102.877L338.823 103.258C349.442 103.431 357.311 116.696 361.133 129.062C361.495 130.632 361.658 132.242 361.617 133.853C361.518 136.551 361.971 139.24 362.949 141.757C364.01 143.706 365.568 145.341 367.463 146.496H367.567L368.103 146.911C368.649 147.255 369.144 147.674 369.573 148.156C369.731 148.327 369.865 148.519 369.971 148.727L372.842 153.829C375.289 157.833 377.462 162 379.345 166.299C384.015 178.215 379.691 189.906 375.108 202.29C373.499 206.596 372.271 210.193 371.251 213.601C371.174 213.834 371.075 214.06 370.957 214.275C370.943 214.498 370.903 214.719 370.836 214.932C368.347 222.486 367.747 230.534 369.089 238.374C370.43 246.213 373.673 253.604 378.532 259.9C380.365 262.355 382.337 264.656 384.066 266.696C389.411 272.957 394.046 278.371 394.443 287.572C394.737 292.898 394.962 297.118 391.676 299.851C389.013 302.048 385.104 302.393 377.304 303.068C369.919 303.389 362.799 305.913 356.861 310.315L356.567 310.505C353.47 312.645 350.209 314.536 346.813 316.16C343.918 317.277 340.805 317.709 337.716 317.423C334.355 317.167 330.978 317.596 327.788 318.685C323.607 320.552 319.892 323.322 316.91 326.797L316.512 327.195C315.158 328.633 313.72 329.99 312.205 331.259L306.93 335.514C298.387 342.328 289.635 349.35 284.222 361.145C282.268 365.469 280.417 368.98 278.636 372.369L278.307 373.009C276.214 377.004 274.225 380.792 272.133 385.566C271.073 388.286 270.297 391.109 269.815 393.988V394.248C268.795 399.592 268.224 400.958 267.342 401.979C266.931 402.448 266.407 402.805 265.82 403.016C263.886 403.56 261.839 403.56 259.905 403.016C254.717 401.858 252.987 398.589 250.635 394.369C247.47 388.644 243.544 381.518 230.019 381.484C212.862 381.484 207.19 389.336 200.496 401.321C194.115 412.771 193.907 422.318 199.891 428.181C206.809 434.943 221.216 434.735 234.101 427.662C234.824 427.234 235.67 427.058 236.504 427.164C237.338 427.269 238.113 427.649 238.708 428.243C239.302 428.838 239.682 429.613 239.787 430.447C239.893 431.281 239.717 432.127 239.289 432.85C238.805 433.698 238.373 434.424 237.94 435.099C236.089 437.65 234.9 440.622 234.481 443.746L234.205 447.205L237.664 447.395C239.877 447.482 242.005 447.395 243.821 447.395C249.77 447.205 252.745 447.274 255.391 451.062C258.037 454.85 256.792 459.243 255.391 464.189V464.275C254.217 467.33 253.5 470.541 253.264 473.805C253.263 474.408 253.118 475.001 252.841 475.537C252.564 476.072 252.164 476.534 251.673 476.884C251.017 477.3 250.252 477.511 249.476 477.489ZM231.437 454.677C233.617 456.648 235.502 458.655 237.249 460.522C238.252 461.595 239.272 462.702 240.31 463.705C242.033 465.474 244.009 466.977 246.173 468.167C246.598 466.081 247.134 464.02 247.781 461.992V461.889C249.096 457.496 249.355 455.939 248.888 455.247C248.767 455.074 248.681 454.988 248.646 454.919C247.029 454.786 245.403 454.786 243.786 454.919C241.849 454.919 239.531 455.057 237.006 454.919L231.437 454.677ZM202.9 443.988C207.234 443.896 211.557 444.438 215.733 445.597C219.468 446.707 223.009 448.388 226.232 450.578L226.802 443.296C226.918 441.728 227.214 440.179 227.684 438.679C214.73 442.708 201.984 441.031 194.495 433.732C189.479 428.82 182.734 417.613 193.786 397.776C201.033 384.787 208.764 374.047 229.915 374.047C247.902 374.047 253.904 384.995 257.138 390.858C259.507 395.147 259.87 395.337 261.392 395.683H261.686C261.842 395.009 262.032 394.109 262.257 392.899V392.605C262.827 389.192 263.767 385.852 265.059 382.643C267.255 377.593 269.4 373.511 271.475 369.568L271.804 368.928C273.534 365.642 275.263 362.234 277.2 358.118C283.271 344.645 292.766 337.053 302.053 329.702L307.242 325.465C308.525 324.379 309.749 323.224 310.908 322.006L311.306 321.591C314.997 317.392 319.575 314.066 324.71 311.854C328.809 310.417 333.157 309.828 337.491 310.124C339.416 310.339 341.364 310.157 343.215 309.588C346.401 308.077 349.461 306.313 352.365 304.313L352.659 304.106C359.637 299.019 367.952 296.085 376.578 295.666C381.109 295.268 385.813 294.87 386.73 294.178C386.987 292.163 386.987 290.123 386.73 288.108C386.384 281.466 383.271 277.817 378.082 271.747C376.266 269.619 374.226 267.215 372.237 264.552C365.337 255.125 361.307 243.907 360.632 232.245C360.499 228.812 360.719 225.376 361.289 221.989C356.861 224.462 354.665 225.033 352.78 224.272C350.307 223.511 347.928 222.472 345.689 221.176C344.668 220.778 343.475 220.311 342.454 219.948L341.624 219.637C339.255 218.72 337.007 217.907 335.277 217.025C333.313 216.197 331.215 215.728 329.085 215.641C328.549 215.641 328.394 215.641 327.927 216.593C326.506 219.958 325.473 223.474 324.848 227.073C324.087 230.532 323.361 233.732 322.427 236.655C321.13 240.615 316.131 253.95 305.651 259.138C302.357 260.822 298.713 261.705 295.014 261.715C289.781 261.463 284.669 260.045 280.054 257.565L279.258 257.201C278.238 256.752 277.183 256.268 276.093 255.835L274.364 255.109C265.439 251.65 258.954 248 256.896 233.853C256.169 228.665 254.077 211.058 257.639 202.307C265.595 182.833 290.863 188.471 305.979 191.93L306.602 192.068C309.96 192.904 313.368 193.522 316.806 193.919H321.406C324.139 193.919 326.958 193.78 329.881 193.919C339.221 194.123 348.323 196.9 356.187 201.944C359.43 203.223 362.564 204.762 365.561 206.544C366.253 204.486 367.031 202.29 367.93 199.903C372.34 187.969 375.834 178.526 372.219 169.308C370.447 165.359 368.431 161.523 366.183 157.824L363.676 153.344L363.554 153.258L362.949 152.808C360.003 150.929 357.615 148.296 356.031 145.181C354.568 141.733 353.861 138.012 353.956 134.268C353.956 133.68 353.956 131.95 353.783 131.397C350.756 121.643 344.703 111.11 338.58 111.006L290.742 110.176C289.839 110.156 288.973 109.813 288.3 109.21C287.627 108.607 287.192 107.784 287.073 106.888C286.954 105.993 287.159 105.084 287.651 104.326C288.143 103.569 288.89 103.012 289.756 102.756L335.761 89.5948C348.075 86.1358 349.961 85.5651 354.907 79.2178C355.91 77.8716 356.834 76.4683 357.674 75.0151L358.331 73.9255C364.142 64.4132 372.911 50.0756 387.733 52.8082L393.216 53.8286C394.038 53.9862 394.785 54.4105 395.342 55.0359C395.898 55.6612 396.233 56.4527 396.294 57.2876L396.623 62.8566C396.83 66.3156 396.623 69.9303 396.536 73.4066C395.948 86.205 397.003 86.499 399.822 87.2427C401.231 87.4765 402.668 87.4765 404.077 87.2427C408.712 86.8622 417.308 86.1704 424.018 95.1638C431.887 105.766 428.048 130.152 427.598 132.902V133.005C426.526 138.488 425.333 143.746 423.983 149.54C420.94 162.667 418.051 175.05 418.207 188.903C418.207 195.735 421.856 201.304 425.99 207.738C429.169 212.358 431.836 217.311 433.945 222.508C436.315 221.816 437.647 220.103 439.687 215.399C439.93 214.69 440.327 212.061 440.535 210.799V210.609C441.279 205.662 442.04 200.543 445.101 196.53C446.676 194.246 448.77 192.367 451.211 191.047C453.652 189.727 456.37 189.005 459.144 188.938C460.147 188.246 460.753 187.07 461.946 184.234C463.9 179.633 466.581 173.338 473.396 168.875C477.027 166.489 481.818 165.78 487.716 165.105H488.356C489.203 165.001 490.172 164.898 490.57 164.794C492.439 164.282 494.275 163.658 496.069 162.926C498.11 162.165 500.237 161.404 502.209 160.816C512.811 157.668 513.122 155.316 514.402 145.423V145.337C515.082 138.086 516.83 130.976 519.591 124.237C521.213 120.573 523.085 117.025 525.194 113.618C527.216 110.421 528.952 107.053 530.383 103.552C531.676 99.4376 532.346 95.1528 532.372 90.8401V90.6325C532.579 87.4502 532.787 84.1469 533.323 80.636C534.949 69.6709 539.549 63.1852 544.011 56.9071L545.481 54.7971C546.381 53.5 547.384 52.2547 548.335 51.096C549.286 49.9372 549.788 49.2454 550.22 48.6573C548.404 48.0866 545.845 47.4986 544.79 47.2392H544.669C538.736 45.821 532.026 44.1952 526.958 39.6985C523.344 36.4419 520.185 32.713 517.567 28.6124C514.713 24.3924 514.281 23.7524 508.193 23.0952C500.992 22.6021 493.761 22.7758 486.592 23.6141L484.62 23.7697C481.905 23.9946 479.328 24.2021 476.716 24.3405H476.595C462.327 25.0323 447.591 25.7414 435.658 15.8486C426.232 8.06582 425.869 7.7545 413.278 7.73721C397.176 7.73721 380.313 8.11768 366.374 14.4477C349.926 21.9192 348.525 24.8247 348.023 37.1734L347.833 42.8981C347.802 43.7682 347.472 44.6008 346.899 45.2561C346.325 45.9113 345.544 46.3489 344.686 46.4955L338.995 47.4813C337.729 47.7119 336.444 47.8277 335.156 47.8272C325.938 47.8272 319.59 41.8085 315.768 38.0382C314.852 37.1734 314.039 36.3087 313.33 35.7725L313.157 35.9282C311.37 37.6215 310.098 39.7861 309.49 42.1717C309.127 43.2094 308.729 44.1779 308.314 45.0773L314.263 46.3917C315.013 46.5565 315.695 46.9461 316.217 47.5086C316.739 48.0711 317.078 48.7796 317.186 49.5394L319.089 62.701C319.167 63.2142 319.137 63.7381 319.002 64.2393C318.867 64.7406 318.629 65.2083 318.304 65.6131C317.979 66.0178 317.574 66.3507 317.113 66.5907C316.653 66.8307 316.148 66.9726 315.63 67.0074C314.906 67.0786 314.178 67.1132 313.451 67.1112C311.155 67.1902 308.87 66.7667 306.755 65.8705C304.64 64.9743 302.746 63.627 301.206 61.9227C299.605 60.0699 298.493 57.8464 297.972 55.4543C293.717 57.0628 288.355 57.1838 281.783 55.9213L272.738 54.1918C272.169 54.0742 271.634 53.8296 271.173 53.4762C270.712 53.1228 270.336 52.6698 270.075 52.151C269.818 51.6319 269.685 51.0608 269.685 50.482C269.685 49.9031 269.818 49.3321 270.075 48.813L273.101 42.5695C269.21 43.0538 264.454 43.6937 260.458 44.5411C257.593 44.9873 254.808 45.8496 252.191 47.1008C254.042 52.6871 261.427 60.6082 266.287 62.0092C269.853 62.692 273.491 62.9187 277.114 62.6837C283.34 62.5799 289.756 62.4761 296.138 64.8975L301.206 66.8345C301.981 67.1308 302.636 67.6743 303.071 68.381C303.505 69.0876 303.695 69.9179 303.61 70.7432L303.074 76.1565C301.188 95.8037 284.049 98.1732 273.931 99.5914C272.063 99.8508 270.092 100.128 268.138 100.456C257.76 102.341 246.155 104.019 238.39 100.006C233.924 97.5215 230.349 93.6987 228.169 89.076C227.739 88.1731 227.211 87.3205 226.595 86.5336C225.317 85.116 223.607 84.1607 221.73 83.8166C219.853 83.4725 217.915 83.7588 216.218 84.6311H216.114C217.939 84.5108 219.771 84.5108 221.596 84.6311C222.178 84.6798 222.741 84.861 223.241 85.1608C223.742 85.4606 224.167 85.871 224.485 86.3606L230.624 95.821C230.938 96.3082 231.137 96.8603 231.206 97.4356C231.275 98.0108 231.212 98.5942 231.022 99.1417C230.031 102.232 229.257 105.387 228.705 108.585L228.445 109.917C227.616 114.604 226.46 119.227 224.986 123.753L223.136 128.941C222.86 129.742 222.323 130.426 221.61 130.884C220.898 131.342 220.053 131.547 219.21 131.466L213.623 130.913C201.517 129.737 193.44 123.216 186.903 117.976C182.527 114.517 178.757 111.438 174.796 110.574C173.201 110.424 171.594 110.453 170.005 110.66C165.249 111.075 158.763 111.629 152.451 107.876C148.748 105.5 145.76 102.165 143.803 98.2251V98.104C143.361 97.289 142.858 96.5085 142.298 95.7692C138.176 93.3745 133.788 91.4706 129.223 90.0964H128.999C120.766 87.2254 111.427 83.9566 104.18 76.9348C102.349 75.1102 100.715 73.0988 99.3029 70.9334C99.0608 70.6221 98.6803 70.086 98.3344 69.6017C97.4178 70.0514 95.9823 70.8124 93.7339 72.1095C92.1215 73.0685 90.4588 73.9402 88.7529 74.721C84.3946 76.5889 80.1054 78.0417 75.8681 79.4772C68.5869 81.9158 62.2915 84.0085 56.7397 88.436L55.0102 89.8196C54.4893 90.1629 54.0179 90.5761 53.6093 91.0476C53.033 92.068 52.5245 93.1253 52.0874 94.2126C51.5081 95.4743 51.0169 96.7745 50.6173 98.104V98.2251C49.1818 102.895 47.3658 107.08 39.583 110.937C37.5514 111.943 35.3841 112.648 33.1492 113.03C33.8065 113.324 35.0344 113.808 37.2136 114.517C41.6238 116.022 49.7871 118.823 49.4931 127.782C49.2164 137.191 39.6695 139.785 33.9275 141.342C30.4869 142.17 26.9795 142.691 23.4467 142.898C21.7172 143.037 17.0648 143.4 16.1655 144.022C15.9276 144.695 15.7992 145.402 15.785 146.115C15.7238 146.756 15.4993 147.371 15.1329 147.901C14.7666 148.431 14.2706 148.858 13.6923 149.142L11.2537 150.352C10.102 151.669 9.26274 153.228 8.79854 154.914C8.33433 156.6 8.25721 158.369 8.57294 160.09C8.62376 160.771 8.7753 161.441 9.02261 162.079C9.7071 162.579 10.43 163.024 11.1845 163.41C15.7218 165.697 19.6562 169.021 22.6684 173.113L25.8334 177.523C26.3133 178.201 26.5593 179.016 26.5343 179.846C26.5094 180.676 26.2148 181.476 25.6951 182.124L22.2361 186.361C23.31 185.991 24.361 185.558 25.3838 185.064C28.4255 183.542 31.2809 181.673 33.8929 179.495L34.1351 179.304C38.7183 175.707 46.3627 169.706 58.9881 169.706H59.5761L64.1766 169.619C72.9452 169.446 83.8411 169.239 91.2088 173.839C98.1269 178.198 102.122 185.254 103.436 195.389C104.509 203.673 103.679 212.684 102.866 221.331V221.556C102.485 225.794 102.087 230.204 102.018 233.784C108.212 236.221 113.461 240.58 116.996 246.219C122.184 254.711 123.205 265.832 119.642 277.54C114.556 294.365 111.986 311.849 112.015 329.426C111.993 330.636 112.08 331.846 112.274 333.04C113.021 332.782 113.831 332.765 114.588 332.991C115.345 333.218 116.012 333.677 116.494 334.303L135 358.118L137.542 358.706C138.261 358.875 138.916 359.25 139.425 359.784C139.935 360.318 140.278 360.99 140.413 361.716L141.416 367.181C141.433 367.33 141.433 367.481 141.416 367.631C141.492 368.797 141.672 369.955 141.953 371.09C142.973 372.439 144.132 373.736 145.636 375.379L145.758 375.534C150.43 380.16 154.026 385.758 156.29 391.93C156.708 393.122 157.066 394.334 157.363 395.562C159.092 397.828 160.822 400.214 162.292 402.67C164.904 407.125 166.818 411.955 167.964 416.991V417.164C169.14 421.608 169.901 424.22 171.735 426.434C176.422 432.037 184.222 440.27 187.3 442.38C189.601 443.988 192.783 444.109 199.009 443.954C200.168 444.006 201.5 443.988 202.9 443.988ZM281.922 195.942C273.776 195.942 267.446 198.243 264.627 205.178C262.499 210.366 262.897 222.802 264.367 232.85C265.889 243.227 269.383 245.078 277.148 248.139L278.964 248.865C280.192 249.367 281.316 249.868 282.423 250.353L283.219 250.716C286.862 252.72 290.9 253.901 295.049 254.175C297.578 254.179 300.073 253.586 302.33 252.445C310.355 248.467 314.436 236.724 315.249 234.407C316.097 231.812 316.737 228.976 317.498 225.551C319.832 214.811 321.787 208.256 329.155 208.17H329.449C332.566 208.297 335.633 209 338.494 210.245C339.947 210.954 342.057 211.767 344.288 212.615L345.101 212.926C346.363 213.376 347.816 213.946 348.94 214.396C349.29 214.535 349.617 214.728 349.909 214.967C351.404 215.795 352.98 216.468 354.613 216.973C357.052 215.844 359.404 214.537 361.652 213.064C358.845 211.393 355.907 209.952 352.866 208.758C352.624 208.661 352.392 208.539 352.174 208.395C345.441 204.02 337.615 201.623 329.587 201.477H329.414C326.768 201.321 324.052 201.39 321.441 201.477H316.754C312.799 201.117 308.878 200.446 305.028 199.47L304.388 199.332C297.037 197.425 289.508 196.289 281.922 195.942ZM305.097 52.0126C305.101 53.7774 305.712 55.487 306.827 56.8552C307.889 58.034 309.301 58.8404 310.856 59.1555L309.974 53.1022L305.097 52.0126Z" fill="#9753A8"/>
</svg>
