<svg width="198" height="325" viewBox="0 0 198 325" fill="none" xmlns="http://www.w3.org/2000/svg">
<path d="M84.2005 324.016C80.7085 324.184 77.2214 323.594 73.9791 322.286C71.6616 321.162 69.7245 318.533 67.0611 314.642C65.091 311.429 62.6678 308.516 59.8663 305.995C57.9293 304.403 56.4073 303.331 55.041 302.345C51.2361 299.647 50.8383 298.886 49.4028 294.338C46.0822 283.736 46.6356 270.124 47.1717 256.98V256.6C47.4485 249.682 47.7079 243.179 47.4139 237.298C46.5702 220.446 46.8707 203.556 48.3132 186.745C48.5208 184.272 48.9013 181.332 49.4201 177.665C51.1496 165.351 53.1558 149.993 49.4201 140.827C46.2378 133.026 37.9189 127.665 31.243 123.341L30.2226 122.684C27.8637 121.249 25.6097 119.648 23.4775 117.893C10.6099 106.772 3.67462 95.9457 2.29101 84.8077C0.0599487 67.2532 0.561521 55.9076 3.65734 50.1138C4.94866 47.9955 6.72759 46.2166 8.84586 44.9252C11.9936 42.6942 15.9022 39.9442 16.2308 33.2338C16.5249 27.5264 15.9887 24.2057 12.2876 23.0124C11.511 22.754 10.8391 22.251 10.3723 21.5788C9.90549 20.9065 9.669 20.1012 9.69822 19.2833C9.72743 18.4654 10.0208 17.679 10.5343 17.0417C11.0479 16.4045 11.754 15.9508 12.547 15.7485C18.9874 13.9635 25.2557 11.6078 31.2776 8.70934C43.73 3.14033 55.4907 -2.11739 71.1773 3.01925C81.5643 6.37997 91.6298 10.6631 101.253 15.8176C106.753 18.8096 117.338 27.9242 120.624 33.1127C121.594 35.0074 122.253 37.0452 122.578 39.1487C123.057 42.6092 124.401 45.893 126.487 48.6956C131.676 54.5586 140.842 55.3542 148.971 56.0633C152.846 56.2656 156.695 56.8155 160.472 57.7063C169.119 60.093 187.573 66.8554 193.471 72.3725C194.875 73.6219 196.092 75.0663 197.086 76.6617C197.424 77.1645 197.636 77.7409 197.705 78.3428C197.775 78.9447 197.698 79.5544 197.483 80.1208C196.861 81.6946 195.442 83.303 189.787 87.2636L189.528 87.4365C186.427 89.5096 183.577 91.9356 181.036 94.6659C174.325 102.57 174.515 111.84 174.706 120.781V120.972C174.827 126.42 174.948 131.539 173.547 136.174C170.883 145.081 164.657 149.024 157.981 153.192C151.063 157.568 143.298 162.515 140.254 173.462C136.466 187.039 128.338 203.919 119.5 208.9C118.306 209.632 116.977 210.116 115.592 210.321C114.207 210.526 112.795 210.448 111.44 210.093L106.113 208.675L107.359 214.088C108.085 217.305 108.621 220.436 106.961 223.341C105.664 225.624 103.502 227.112 99.8872 229.55L99.6796 229.689C97.0139 231.405 94.4763 233.312 92.0871 235.396C90.1673 237.125 88.8529 238.111 87.919 238.855C84.8232 241.207 84.46 241.899 82.7304 247.503L82.1597 249.232C80.3465 254.534 79.0944 260.012 78.424 265.576C76.4869 282.785 78.1126 294.39 83.6125 302.103C86.2101 305.176 89.2394 307.855 92.6059 310.059L92.9173 310.284C94.9927 311.806 97.829 313.881 99.4375 315.368C99.8896 315.789 100.232 316.314 100.435 316.898C100.637 317.481 100.694 318.105 100.601 318.716C100.507 319.326 100.265 319.905 99.8965 320.401C99.528 320.896 99.0439 321.294 98.4863 321.56C93.9233 323.278 89.0751 324.111 84.2005 324.016ZM77.369 315.472C79.3925 316.458 83.9757 316.631 88.1265 316.25C84.0823 313.603 80.481 310.335 77.4554 306.565C70.8833 297.243 68.8079 283.995 71.0044 264.849C71.7155 258.766 73.0781 252.776 75.0687 246.984L75.6222 245.254C77.6284 238.924 78.5796 236.607 83.4568 232.836C84.3043 232.214 85.4458 231.332 87.1407 229.827C89.7856 227.524 92.5885 225.409 95.5288 223.497L95.719 223.376C97.468 222.375 99.0688 221.135 100.475 219.692C100.583 218.397 100.442 217.094 100.06 215.853L97.4313 204.334C97.2833 203.699 97.3023 203.037 97.4866 202.412C97.6709 201.787 98.0142 201.22 98.4828 200.767C98.9515 200.314 99.5296 199.99 100.161 199.827C100.792 199.664 101.454 199.668 102.084 199.837L113.498 202.881C113.723 202.881 114.415 203.141 115.816 202.362C121.437 199.215 129.15 185.379 133.007 171.508C136.864 157.637 146.722 151.48 153.952 146.897C160.247 142.919 164.329 140.29 166.248 134.099C167.156 129.879 167.436 125.549 167.079 121.248V121.058C166.871 111.667 166.629 99.9582 175.19 89.927C178.108 86.7072 181.414 83.8608 185.031 81.4525L185.308 81.2449C186.933 80.1034 188.057 79.256 188.767 78.6333L188.075 77.9589C184.132 74.275 168.791 67.9969 158.223 65.074C154.898 64.3161 151.512 63.8474 148.106 63.6731C139.026 62.8775 127.732 61.9436 120.572 53.7458C117.618 50.0032 115.687 45.5571 114.968 40.8436C114.794 39.5479 114.511 38.2693 114.121 37.0214C111.613 33.0781 102.014 24.7765 97.535 22.3724C88.3204 17.4408 78.6832 13.3429 68.7387 10.1276C55.802 5.90755 46.2551 10.1275 34.3042 15.5236C30.3609 17.2531 26.0545 19.2074 21.4021 20.8505C24.1347 25.1569 23.858 30.6395 23.7023 33.5278C23.1835 43.9048 16.6632 48.5226 13.1523 50.9958C11.319 52.3102 10.5926 52.881 10.1776 53.6592C8.88044 56.046 7.06446 63.1715 9.67602 83.77C10.8175 92.9883 16.9227 102.241 28.3028 112.099C30.1877 113.603 32.1631 114.989 34.2177 116.25L35.2209 116.907C42.3983 121.525 52.2219 127.872 56.3036 137.886C60.8176 148.955 58.5865 165.385 56.8051 178.599C56.3209 182.162 55.9404 185.015 55.7501 187.246C54.3393 203.719 54.0446 220.268 54.8681 236.78C55.1794 242.988 54.8681 249.664 54.6259 256.755V257.101C54.1071 269.64 53.5882 282.577 56.5284 291.916C56.768 292.833 57.0803 293.73 57.4623 294.597C58.0333 295.12 58.6464 295.594 59.2956 296.015C60.7138 297.018 62.4087 298.229 64.4841 299.959C67.8527 302.923 70.7665 306.367 73.1317 310.18C74.3329 312.103 75.755 313.879 77.369 315.472ZM194.007 75.0706C194.655 75.071 195.292 75.2377 195.858 75.5548C195.282 75.2327 194.632 75.0658 193.972 75.0706H194.007Z" fill="#9753A8"/>
</svg>
