<svg width="164" height="149" viewBox="0 0 164 149" fill="none" xmlns="http://www.w3.org/2000/svg">
<path d="M119.262 148.621C117.528 148.609 115.796 148.505 114.073 148.31C113.515 148.244 112.979 148.054 112.503 147.755C112.028 147.456 111.625 147.055 111.323 146.581C107.71 141.537 103.621 136.852 99.1129 132.589C94.5488 128.437 89.5234 124.821 84.1353 121.814C76.4389 117.144 68.4832 112.319 64.367 104.018L63.5715 102.392L61.842 102.167C61.2224 102.086 60.5988 102.04 59.9741 102.029C55.2871 102.029 53.4884 104.709 51.7416 107.304L51.6552 107.442C51.3193 107.933 50.8756 108.341 50.358 108.635C46.1492 110.856 41.562 112.27 36.8333 112.803H36.6949C34.827 113.097 32.3538 113.512 29.6039 114.135C26.1449 114.983 22.7896 116.02 19.6073 117.006L18.8983 117.231C14.3757 118.793 9.71343 119.917 4.97575 120.586C4.45173 120.642 3.92179 120.59 3.41894 120.432C2.91609 120.274 2.45108 120.015 2.05288 119.67C1.65816 119.32 1.34058 118.891 1.12025 118.412C0.899923 117.933 0.781689 117.413 0.77306 116.885C0.461749 99.7111 2.4161 83.0904 4.45692 67.5422C4.77509 64.7292 4.87337 61.8958 4.75091 59.0676C4.59816 57.5361 4.62716 55.9918 4.83736 54.4671C4.98791 53.8172 5.31045 53.2199 5.77126 52.7376C7.08208 51.5795 8.64578 50.7444 10.3372 50.299C12.386 49.8291 14.507 49.7645 16.5807 50.1088C20.6969 50.4547 25.3839 50.8352 29.1542 47.3934C32.1463 44.6954 33.5818 40.2852 35.1211 35.6155C36.4528 31.5339 37.698 27.9883 39.4621 25.9302L40.5344 24.6677C43.9934 20.7071 44.7198 20.2748 50.1332 19.6176C51.9721 19.526 53.8135 19.7423 55.5812 20.2575L55.9962 20.3439C59.1018 21.3129 62.4103 21.4324 65.5777 20.6898C75.1591 17.4903 74.9862 12.0423 74.6922 6.07548C74.679 5.86237 74.679 5.64867 74.6922 5.43557C74.689 4.48729 75.0432 3.57259 75.6843 2.87382C76.3253 2.17505 77.2062 1.74355 78.1512 1.66525C83.8932 1.18099 90.6556 0.679404 97.1758 0.662109C98.1714 0.662016 99.127 1.05395 99.8358 1.75308C100.545 2.45221 100.95 3.40233 100.963 4.39785V10.2263C100.963 15.4148 100.963 20.0326 101.205 24.6158L101.327 26.3454L102.883 27.2619C108.331 30.3924 112.534 29.372 115.093 27.9538C119.988 25.2039 122.582 18.943 123.879 14.1177C124.064 13.4421 124.433 12.831 124.945 12.3524C125.456 11.8738 126.09 11.5465 126.777 11.4067C127.463 11.2669 128.175 11.3202 128.833 11.5606C129.491 11.8011 130.069 12.2192 130.503 12.7687C134.23 17.9939 137.335 23.6356 139.756 29.5795C140.932 32.1738 141.987 34.4914 143.077 36.6186C145.759 41.6022 148.922 46.3115 152.52 50.6794C158.556 58.4276 164.246 65.7435 163.658 75.3942C163.001 86.0825 157.622 92.966 151.915 100.247C147.003 106.525 141.538 113.599 138.995 123.474L138.442 125.74C135.623 137.086 133.599 145.284 125.349 147.757L124.606 148.016H124.208C123.911 148.152 123.597 148.245 123.274 148.293C121.949 148.522 120.606 148.632 119.262 148.621ZM116.598 140.942C118.237 141.102 119.888 141.102 121.527 140.942C122.144 140.726 122.782 140.576 123.43 140.493C126.802 139.317 128.203 135.564 131.057 124.011L131.628 121.728C134.481 110.296 140.552 102.53 145.896 95.785C151.24 89.04 155.564 83.4364 156.066 75.031C156.498 68.234 151.863 62.3018 146.519 55.4184C142.609 50.6827 139.185 45.5665 136.297 40.1468C135.139 37.8984 134.049 35.4944 132.838 32.8137C131.368 29.5968 129.95 26.4837 128.411 23.6473C126.408 28.2198 123.028 32.0531 118.743 34.6124C115.284 36.5494 108.02 39.0053 99.0436 33.8514L95.723 31.9143C95.1919 31.5981 94.7459 31.1572 94.4234 30.6299C94.101 30.1025 93.9118 29.5046 93.8724 28.8877L93.6303 25.0655C93.3017 20.2402 93.319 15.4667 93.3536 10.1744V8.25467C89.5832 8.37574 85.7957 8.60055 82.2675 8.87727C82.2675 15.1035 80.5379 23.63 67.8779 27.9019C63.4299 29.0979 58.738 29.0441 54.3186 27.7463H53.9035C52.9353 27.5117 51.9533 27.3383 50.9633 27.2273C49.9775 27.3095 49 27.4715 48.0404 27.7116C47.3823 28.3119 46.7749 28.9656 46.2245 29.666L45.1522 30.9458C43.9043 33.1973 42.9289 35.5893 42.2466 38.0714C40.5171 43.2599 38.6492 49.071 34.1871 53.1008C28.0127 58.7563 20.3511 58.1337 15.8889 57.7532C14.7926 57.6277 13.6885 57.5814 12.5855 57.6148L12.2397 57.7359C12.2397 58.0991 12.2397 58.5142 12.2397 58.9985C12.3816 62.2194 12.2659 65.4465 11.8938 68.6491C9.76228 83.1728 8.54339 97.8159 8.24444 112.492C10.9425 111.904 13.6232 111.057 16.5807 110.14L17.2725 109.932C20.5759 108.895 24.0003 107.822 27.8225 106.906C30.7972 106.231 33.4434 105.782 35.4151 105.47H35.5015C39.0995 105.093 42.6079 104.111 45.8786 102.565C47.3082 100.113 49.3633 98.0841 51.8337 96.6863C54.3041 95.2886 57.1013 94.5717 59.9395 94.609C60.8765 94.6114 61.8125 94.6749 62.7412 94.7992L66.5635 95.2835C67.1864 95.3614 67.78 95.5937 68.2904 95.9591C68.8008 96.3246 69.2119 96.8116 69.4864 97.3762L71.2159 100.835C74.3463 107.165 81.0394 111.212 88.1304 115.536C94.012 118.821 99.4911 122.779 104.457 127.331C108.861 131.537 112.921 136.089 116.598 140.942Z" fill="#9753A8"/>
</svg>
