<svg width="695" height="616" viewBox="0 0 695 616" fill="none" xmlns="http://www.w3.org/2000/svg">
<path d="M164.519 615.15C159.21 615.007 153.914 614.551 148.659 613.784H148.348C146.151 613.49 144.214 613.265 142.398 613.075C141.444 612.996 140.556 612.557 139.914 611.847C139.271 611.137 138.923 610.21 138.939 609.253C139.112 599.965 138.766 591.681 132.851 584.175C131.337 582.283 129.639 580.545 127.784 578.986C125.692 577.411 123.998 575.367 122.838 573.019C121.177 569.289 120.182 565.297 119.897 561.224L119.569 558.543C117.666 544.5 119.465 532.601 122.215 517.381C124.36 505.361 125.103 489.277 116.542 480.889C114.344 478.893 111.689 477.468 108.811 476.738C105.975 475.821 104.315 475.198 103.035 473.088C101.935 470.787 101.412 468.252 101.513 465.703C101.236 460.93 100.907 454.998 94.5948 449.982C86.5699 443.583 75.3453 444.309 65.4352 444.949H64.4148C61.2451 445.204 58.0635 445.279 54.8852 445.174C39.5964 444.552 28.5102 442.511 17.1647 434.036C8.2923 427.412 2.82706 421.687 1.11485 412.02C-0.251463 404.133 0.82084 394.378 1.77207 385.783L2.37741 380.093C2.53306 378.363 2.6368 376.357 2.72328 374.212V374.04C3.10377 365.876 3.63993 358.854 6.35525 355.534C6.69709 355.122 7.12125 354.786 7.6005 354.548L9.33001 353.701C9.91304 353.424 10.5528 353.288 11.1979 353.303C14.1269 353.592 17.0749 352.989 19.6552 351.573C22.9239 349.844 34.2349 339.467 36.4141 337.08C39.186 333.591 41.6894 329.896 43.9029 326.028C44.3009 325.344 44.9068 324.805 45.6324 324.489C55.75 319.785 71.575 316.499 84.1831 316.499C88.4204 316.499 93.4014 316.81 97.2755 317.087C100.527 317.294 103.9 317.415 106.753 317.502C107.647 317.53 108.502 317.874 109.167 318.472C109.831 319.071 110.263 319.885 110.385 320.771C110.624 322.955 111.435 325.037 112.737 326.807C116.49 331.857 127.058 335.627 141.724 337.184L145.719 337.599L145.408 333.655C145.385 333.212 145.385 332.767 145.408 332.324C145.406 331.805 145.512 331.29 145.719 330.814C145.925 330.338 146.228 329.909 146.608 329.555C146.988 329.201 147.437 328.929 147.927 328.757C148.417 328.585 148.937 328.515 149.455 328.553C155.34 329.122 161.17 330.163 166.888 331.667C178.078 334.244 189.666 336.855 201.115 332.6C210.818 328.951 210.178 324.87 209.97 323.538C208.898 316.62 192.969 313.265 183.18 312.763C181.278 312.677 179.271 312.763 177.334 312.763H176.66C172.943 313.109 169.195 312.667 165.66 311.466C162.866 310.093 160.218 308.442 157.756 306.537C154.469 303.961 150.851 301.838 146.999 300.224C143.6 299.087 140.084 298.333 136.518 297.976H136.276C132.136 297.659 128.09 296.58 124.342 294.793C117.96 291.334 110.212 279.885 107.047 273.209L101.599 262.002L100.7 274.42C100.7 275.025 100.7 275.648 100.596 276.288C100.579 276.975 100.375 277.644 100.005 278.223C99.6348 278.802 99.1136 279.27 98.4975 279.574C97.8813 279.879 97.1938 280.009 96.509 279.951C95.8242 279.893 95.1682 279.649 94.612 279.245C93.4936 278.382 92.1325 277.892 90.7206 277.844H90.5823C88.8528 277.723 86.639 278.121 83.6643 282.012C82.2457 283.885 81.0825 285.938 80.2053 288.118L80.0842 288.394C79.2674 290.56 78.0987 292.576 76.6252 294.361L74.3941 296.886C71.2118 300.553 67.9084 304.375 63.6884 306.641C58.3442 309.46 37.9188 312.071 32.4708 309.287C32.1198 309.114 31.7987 308.886 31.5196 308.612C29.5653 306.675 27.9395 302.559 29.3059 285.748C29.3836 284.839 29.7868 283.989 30.4413 283.353C31.0959 282.718 31.9578 282.34 32.8686 282.289C34.3041 282.289 35.8434 282.168 37.3307 282.133H38.8527C46.2377 281.96 53.8648 281.788 58.8285 279.211C65.3315 275.752 67.7528 269.767 64.9683 263.887C63.3426 260.515 60.4024 259.356 57.0299 258.284H56.8396C56.2918 258.114 55.7546 257.912 55.2312 257.678C54.5679 257.369 54.0086 256.873 53.6208 256.253C53.2331 255.632 53.0336 254.912 53.0464 254.18C53.0592 253.448 53.2838 252.736 53.693 252.129C54.1022 251.522 54.6785 251.046 55.3522 250.76C56.8396 250.138 58.7074 249.532 60.0738 249.031L60.3505 248.944C64.5186 247.578 68.8424 246.177 71.5058 243.462C73.1533 241.637 74.5228 239.58 75.5702 237.356V237.201C76.3874 235.351 77.5631 233.682 79.0292 232.289C81.9175 229.833 86.3796 228.83 90.7034 227.861C92.5367 227.464 94.1623 227.066 95.6843 226.634L97.9846 225.976L98.1057 223.59C98.2094 221.186 98.2786 218.799 98.3305 216.481V216.308C98.3558 211.651 98.6271 206.998 99.1433 202.369C99.2512 201.571 99.609 200.829 100.165 200.248C100.721 199.667 101.448 199.277 102.239 199.134C103.467 198.927 104.73 198.65 106.113 198.322L106.58 198.218L107.22 198.062C108.174 197.81 109.188 197.941 110.047 198.425C110.906 198.91 111.543 199.71 111.821 200.656C112.484 202.764 113.311 204.817 114.294 206.796L114.64 207.505C115.477 209.179 116.188 210.914 116.767 212.694L117.286 214.337L119.015 214.873C126.833 217.398 132.402 211.812 137.417 205.879L138.075 205.101C139.167 203.774 140.351 202.525 141.62 201.365L141.724 201.279L144.422 199.134C150.008 194.741 151.167 192.908 150.786 183.344C150.579 178.64 150.631 173.987 150.786 169.508V167.882C150.786 162.573 150.942 157.505 150.786 152.317L150.665 148.858L147.206 149.082C139.026 149.619 135.411 158.301 131.191 170.494C127.369 181.666 125.397 185.454 122.751 186.751C122.087 187.077 121.341 187.203 120.607 187.114C119.056 186.749 117.655 185.916 116.594 184.728C114.671 182.804 112.211 181.508 109.538 181.009C102.914 180.162 100.492 182.635 98.5726 185.229C97.9752 186.23 97.1054 187.039 96.0648 187.564C91.7756 189.536 88.2302 189.518 85.8262 187.564C82.9898 185.143 82.0731 180.248 83.5086 175.094C84.7885 170.459 87.2271 169.093 90.5996 167.19H90.6861C94.0567 165.571 97.0141 163.205 99.3336 160.272C102.533 156.018 102.983 151.141 103.381 146.834C103.502 145.537 103.623 144.067 103.882 142.545C105.785 131.286 114.398 119.923 126.885 112.123C139.372 104.323 153.882 101.521 165.314 104.859C171.374 106.569 177.258 108.851 182.886 111.673C185.275 113.152 187.436 114.97 189.303 117.069L189.441 117.225C192.758 121.186 197.148 124.104 202.084 125.63C207.152 127.21 212.581 127.21 217.649 125.63C222.317 124.42 226.613 122.073 230.154 118.799L230.257 118.712C232.152 117.074 234.216 115.642 236.414 114.44C238.177 113.653 240.088 113.252 242.018 113.264H242.52C244.883 113.186 247.218 112.731 249.438 111.915L257.497 108.56C257.489 108.422 257.489 108.283 257.497 108.145C257.581 107.432 257.867 106.757 258.32 106.199C258.773 105.642 259.376 105.225 260.057 104.997C261.7 104.425 263.306 103.749 264.865 102.974C265.902 102.472 266.975 101.971 268.237 101.434C269.344 101.002 270.244 100.691 270.97 100.431L271.731 100.155H271.835C275.864 98.8229 276.556 97.7679 278.286 92.9945L278.874 91.4033C279.969 87.6194 280.436 83.6816 280.257 79.7464V79.193C280.361 74.4541 280.534 72.0847 281.243 70.5454C281.277 70.467 281.317 70.3918 281.364 70.3206C283.215 67.0173 287.85 67.2594 292.744 67.5188H293.505C294.488 67.52 295.431 67.9048 296.134 68.5911H298.59C301.744 68.6317 304.898 68.4816 308.033 68.1414L310.489 67.8128L310.887 65.3742C311.378 62.7371 311.425 60.0364 311.025 57.3839C310.851 56.4564 311.029 55.4972 311.525 54.6943C312.021 53.8913 312.799 53.3024 313.706 53.0428C314.917 52.6969 318.722 50.3794 325.294 43.8418C328.888 40.4938 332.081 36.7385 334.806 32.6519C336.46 28.9066 337.337 24.8644 337.383 20.7702C337.42 20.2334 337.57 19.7104 337.824 19.2363C338.079 18.7621 338.431 18.3476 338.858 18.0204C339.285 17.6931 339.777 17.4606 340.301 17.3383C340.825 17.216 341.369 17.2068 341.897 17.3112C342.969 17.5187 344.37 17.8819 346.065 18.3662L349.524 19.3693L350.268 15.9103C350.683 13.8695 350.994 11.7941 351.323 9.59759L351.409 8.97497C351.6 7.53947 351.79 6.06939 352.067 4.59931C352.183 3.96727 352.459 3.37527 352.867 2.87907C353.276 2.38286 353.803 1.99878 354.401 1.76292C368.549 -3.77151 379.981 5.91372 392.07 16.1697L392.243 16.3254C404.056 26.2873 416.249 36.5952 431.831 32.9114L434.841 32.2022L434.357 29.1583C434.269 28.0793 434.31 26.9936 434.478 25.9241C434.584 24.9976 435.026 24.1423 435.721 23.5206C436.416 22.8989 437.315 22.554 438.248 22.5516C445.15 22.3668 451.992 23.8813 458.172 26.9618C466.646 31.0262 475.467 35.2116 487.176 34.0355L489.995 33.7415L490.15 30.8878C490.721 20.5108 491.43 16.7405 494.474 15.3223C495.229 14.9912 496.061 14.8774 496.877 14.9935C497.692 15.1096 498.46 15.451 499.092 15.9795C504.09 19.9054 514.536 18.7813 522.181 17.9684L523.426 17.8473C524.81 17.709 526.124 17.5706 527.214 17.5014C534.391 17.1555 538.438 18.2278 545.132 20.0092C553.416 22.2057 560.472 22.8975 570.123 19.5077C570.697 19.3059 571.312 19.2461 571.914 19.3334C572.516 19.4208 573.089 19.6526 573.582 20.0092C579.756 24.5232 590.877 19.5596 596.948 16.8961H597.051L598.158 16.4118C599.144 15.9622 600.061 15.5644 600.943 15.2358C612.254 10.9466 629.186 6.32881 645.685 8.55987C651.877 9.40733 658.345 9.94349 664.986 10.4623L666.802 10.618C671.161 10.9985 675.657 11.3617 680.12 11.8632C685.55 12.4859 690.497 13.3506 690.67 17.0518C690.706 18.8512 690.302 20.6324 689.494 22.2403L688.646 24.5405L690.376 26.27C692.234 28.3716 693.604 30.8581 694.388 33.5513C694.515 34.0897 694.523 34.6494 694.411 35.1913C694.3 35.7331 694.071 36.2441 693.742 36.6887C693.413 37.1332 692.99 37.5006 692.505 37.7652C692.019 38.0299 691.481 38.1854 690.929 38.2209C689.459 38.2209 687.626 38.2209 686.294 38.2209H686.156C684.669 38.135 683.18 38.135 681.693 38.2209H681.607L678.632 38.3939L678.407 42.8906C677.992 51.2268 677.612 58.4562 682.437 65.7374C684.161 68.2265 686.309 70.3927 688.784 72.1366L689.615 72.7765H689.736C690.515 73.3935 691.021 74.2909 691.147 75.2766C691.273 76.2624 691.009 77.2583 690.41 78.0515C689.716 78.9408 688.947 79.7683 688.11 80.5247C687.685 80.9198 687.176 81.2153 686.623 81.3895C685.012 81.7514 683.49 82.4302 682.145 83.3864C680.8 84.3425 679.659 85.5568 678.788 86.9585C677.058 89.8468 676.764 93.8765 676.539 97.422C676.539 97.7333 676.539 98.01 676.539 98.2868C676.501 99.6049 676.356 100.918 676.107 102.213C675.569 104.241 674.923 106.238 674.17 108.197L674.014 108.525C673.982 108.649 673.942 108.77 673.893 108.889C673.739 109.396 673.477 109.865 673.124 110.262C672.772 110.659 672.338 110.975 671.852 111.189L668.393 112.797C667.757 113.094 667.05 113.208 666.353 113.126L658.95 112.192C658.847 112.763 658.726 113.333 658.622 113.922C657.619 119.11 656.564 124.593 658.362 130.888C659.518 134.406 661.166 137.742 663.257 140.798C665.955 145.191 668.255 148.961 667.892 153.769C667.615 157.989 665.298 163.212 663.049 168.263C661.466 171.634 660.091 175.1 658.933 178.64C658.727 179.326 658.331 179.939 657.791 180.409C657.25 180.879 656.588 181.186 655.88 181.295C655.172 181.404 654.448 181.309 653.791 181.023C653.135 180.737 652.573 180.27 652.171 179.677C650.23 177.064 647.798 174.855 645.011 173.174L644.717 172.967C642.584 171.723 640.748 170.029 639.338 168.003C635.74 161.829 637.193 150.483 638.611 139.518C639.684 131.303 640.791 122.794 639.822 115.789L639.684 114.7L638.975 113.922C636.076 110.894 632.528 108.563 628.598 107.107L624.395 105.62L624.135 110.03C623.928 113.593 623.928 117.156 623.928 120.926V124.523C623.928 125.438 623.597 126.322 622.996 127.012C622.396 127.702 621.565 128.151 620.659 128.276C610.836 129.625 604.125 134.641 598.176 139.069L598.072 139.155C594.491 141.976 590.665 144.47 586.64 146.609C585.515 147.127 584.36 147.578 583.181 147.958L582.195 148.304C576.833 150.172 570.088 152.472 568.151 158.093C566.975 161.293 567.563 164.89 569.881 168.816C571.385 171.376 579.013 175.976 588.041 179.781C590.762 180.696 593.585 181.277 596.446 181.511L597.207 181.632C599.249 181.709 601.257 182.179 603.122 183.015C603.32 183.134 603.506 183.273 603.675 183.43C605.215 184.814 606.131 187.322 607.48 192.078C608.026 194.188 608.72 196.257 609.556 198.27C610.247 199.826 611.043 201.504 611.891 203.268L613.257 206.173C614.883 209.633 616.56 213.178 617.961 216.689C618.281 217.511 618.304 218.419 618.026 219.257C617.748 220.094 617.187 220.808 616.438 221.275C615.69 221.743 614.802 221.934 613.927 221.817C613.053 221.7 612.247 221.28 611.648 220.632C610.451 219.289 608.991 218.206 607.359 217.45L602.171 215.011L602.551 220.701C602.984 227.273 596.93 242.977 592.797 247.855C590.791 250.156 588.257 251.936 585.412 253.043C581.002 255.084 576.47 257.194 575.035 266.239C574.62 268.903 575.19 273.157 576.228 280.49C576.453 282.03 576.903 285.195 577.352 289.138C577.434 289.978 577.233 290.821 576.781 291.534C576.329 292.246 575.652 292.788 574.858 293.072C574.063 293.356 573.196 293.367 572.395 293.102C571.593 292.837 570.903 292.313 570.434 291.611C569.109 289.624 567.659 287.724 566.093 285.921V285.835C563.742 283.325 561.767 280.488 560.23 277.412L559.002 274.489L556.01 275.579C544.336 279.816 548.072 296.333 552.551 311.622C553.139 313.593 553.554 315.081 553.848 316.257L554.73 319.923C558.189 333.984 561.268 346.143 551.98 358.439C547.639 364.199 542.209 366.672 535.931 369.508C531.941 371.041 527.864 372.335 523.72 373.382C523.471 373.449 523.216 373.49 522.959 373.503L514 373.988C509.59 374.212 506.477 375.855 504.73 378.848C502.188 383.223 503.226 390.037 507.809 399.1L509.331 402.058C512.997 409.062 515.211 413.299 512.34 421.082C511.684 422.864 510.904 424.598 510.005 426.271L509.815 426.634C509.543 427.561 508.923 428.348 508.086 428.83C507.55 429.105 506.958 429.248 506.356 429.248C505.755 429.248 505.162 429.105 504.626 428.83C501.994 427.151 499.602 425.12 497.518 422.794V422.708C495.025 419.887 492.065 417.518 488.767 415.703L484.339 413.714L483.751 422.5V422.898C483.113 427.874 483.078 432.909 483.648 437.893C483.758 438.603 483.665 439.33 483.38 439.99C483.094 440.65 482.627 441.215 482.034 441.62C481.44 442.026 480.744 442.255 480.025 442.281C479.307 442.306 478.596 442.128 477.975 441.767C475.78 440.618 473.921 438.92 472.579 436.838C472.523 436.763 472.476 436.682 472.44 436.596C471.576 434.866 471.748 432.272 472.44 427.274V426.997C473.011 423.019 473.547 419.266 472.596 415.842C470.728 408.924 468.601 407.471 465.297 405.949H465.159C463.501 405.246 461.984 404.25 460.68 403.009C457.982 400.553 457.048 397.509 456.062 394.361C454.713 389.882 453.018 384.33 446.238 380.179C438.075 375.233 429.151 374.057 422.942 377.135C421.049 378.106 419.386 379.468 418.062 381.133C416.737 382.797 415.783 384.724 415.263 386.786C415.11 387.322 414.84 387.818 414.472 388.237C414.104 388.655 413.648 388.987 413.135 389.207C406.667 391.992 402.897 395.191 401.236 399.256C398.867 405.101 401.548 410.636 404.401 416.551V416.741C408.812 425.665 410.974 431.598 404.038 438.533L403.225 439.328L402.828 439.709C402.492 440.102 402.08 440.421 401.616 440.648C401.151 440.874 400.646 441.002 400.13 441.023C399.613 441.038 399.1 440.948 398.619 440.761C398.138 440.574 397.699 440.293 397.328 439.934C396.105 438.634 394.951 437.271 393.869 435.852L393.679 435.61C391.66 432.958 389.452 430.455 387.072 428.121C383.543 424.701 380.266 421.031 377.266 417.139C374.196 413.408 370.941 409.835 367.511 406.433C360.904 399.93 360.593 399.515 357.134 391.386C355.095 386.73 352.785 382.197 350.216 377.81L348.486 374.714C341.326 361.708 337.037 361.777 325.588 361.985H320.399C310.351 361.985 304.661 358.906 296.774 354.634C294.111 353.182 291.205 351.642 287.936 350.103C286.682 349.521 285.458 348.874 284.27 348.166C284.027 348.024 283.801 347.856 283.595 347.665C282.056 346.194 280.327 344.672 278.666 343.202L277.265 341.992L274.74 339.726L269.033 344.067C271.965 347.619 275.473 350.653 279.41 353.043C279.662 353.192 279.895 353.372 280.102 353.579C280.378 353.856 280.621 354.133 280.88 354.41C281.854 355.551 282.615 356.857 283.128 358.266C284.224 361.309 286.214 363.949 288.836 365.842C292.187 368.178 295.755 370.188 299.49 371.843C303.623 373.797 306.408 375.094 307.238 378.329C307.999 381.096 306.961 383.777 304.868 389.138C300.925 399.221 296.1 405.24 288.749 409.218C278.753 414.666 268.981 416.741 259.694 415.357C250.406 413.974 242.018 409.149 234.892 401.054C232.587 398.148 230.625 394.985 229.047 391.629C227.425 388.354 225.546 385.214 223.426 382.237C221.938 380.248 220.174 378.156 218.479 376.184C213.412 370.252 208.223 364.164 207.428 357.748L200.631 356.589C200.838 365.824 207.549 373.59 213.429 380.56L213.689 380.854C215.28 382.739 216.784 384.503 218.099 386.25C219.816 388.673 221.349 391.223 222.682 393.877L223.132 394.742C224.96 398.586 227.242 402.197 229.929 405.499C234.21 410.396 239.387 414.429 245.183 417.381C245.978 417.783 246.606 418.453 246.954 419.273C247.302 420.093 247.349 421.009 247.085 421.86L245.909 425.683C251.179 428.445 256.299 431.481 261.25 434.78C261.846 435.177 262.316 435.737 262.604 436.393C262.892 437.049 262.986 437.773 262.876 438.481C262.461 441.179 262.149 444.067 261.89 447.301C261.749 452.477 260.875 457.607 259.296 462.538C256.909 468.713 253.346 470.079 247.189 471.982C242.468 473.434 237.141 475.095 232.627 480.491C225.709 488.758 227.179 500.19 228.58 511.259C230.05 522.708 231.433 533.535 223.806 539.346C223.619 539.495 223.416 539.622 223.201 539.726C222.2 540.146 221.147 540.431 220.071 540.574L219.569 540.678C216.006 541.335 211.561 542.148 208.829 546.16C206.096 550.173 206.563 554.254 206.874 558.042V558.146C207.159 560.101 207.159 562.088 206.874 564.043C205.145 571.826 198.711 584.088 192.139 591.958C190.825 593.497 189.268 595.676 187.608 597.993L187.366 598.339C182.402 605.257 177.594 611.778 173.218 613.594C170.438 614.642 167.49 615.169 164.519 615.15ZM146.601 605.88L149.334 606.243H149.61C156.442 607.091 166.767 608.371 170.572 606.779C173.287 605.655 179.22 597.267 181.468 594.119L181.71 593.773C183.44 591.335 185.169 589.017 186.605 587.253C192.295 580.456 198.313 569.18 199.732 562.642C199.795 561.413 199.748 560.18 199.593 558.958V558.768C199.247 554.496 198.728 548.045 202.845 542.009C207.341 535.403 214.277 534.123 218.41 533.362L218.929 533.258L219.984 533.05C223.063 530.162 222.89 524.144 221.368 512.296C219.915 500.812 218.116 486.527 227.11 475.717C233.059 468.609 240.098 466.43 245.235 464.839C250.371 463.248 251.375 462.763 252.481 459.91C253.771 455.649 254.475 451.233 254.574 446.783C254.782 444.309 255.024 442.009 255.301 439.865C251.271 437.288 243.384 432.462 240.41 431.546C239.455 431.247 238.658 430.583 238.191 429.698C237.725 428.814 237.627 427.78 237.919 426.824L239.182 422.708C233.655 419.492 228.685 415.403 224.464 410.601C221.404 406.841 218.793 402.737 216.681 398.374L216.231 397.526C215.086 395.213 213.762 392.992 212.27 390.885C211.112 389.328 209.693 387.651 208.172 385.869L207.912 385.575C200.873 377.326 191.24 366.032 193.696 351.625C193.869 350.636 194.426 349.756 195.246 349.176C196.065 348.596 197.081 348.364 198.071 348.529L212.115 350.933C213.104 351.107 213.984 351.664 214.564 352.483C215.144 353.303 215.376 354.319 215.211 355.309C214.467 359.633 219.776 365.876 224.481 371.376C226.21 373.469 228.147 375.665 229.773 377.862C232.129 381.148 234.216 384.618 236.017 388.239C237.337 391.053 238.961 393.715 240.859 396.177C245.957 402.428 253.145 406.624 261.094 407.99C268.704 409.131 276.885 407.35 285.411 402.68C291.136 399.584 294.803 394.897 298.089 386.509C298.901 384.602 299.589 382.643 300.147 380.646C298.976 379.97 297.769 379.358 296.532 378.813C292.376 376.971 288.408 374.729 284.685 372.12C280.956 369.441 278.099 365.724 276.47 361.431C276.242 360.824 275.946 360.243 275.588 359.702V359.615L275.294 359.304C269.568 355.773 264.667 351.055 260.922 345.468C260.359 344.663 260.134 343.671 260.292 342.702C260.45 341.733 260.98 340.864 261.769 340.279L273.063 331.632C273.834 331.042 274.802 330.77 275.767 330.873C276.733 330.976 277.622 331.446 278.251 332.185C279.605 333.624 281.043 334.981 282.558 336.25L283.959 337.478C285.567 338.896 287.227 340.349 288.784 341.836C289.528 342.251 290.375 342.684 291.465 343.202C294.924 344.828 297.933 346.437 300.683 347.941C308.085 351.954 312.565 354.375 320.676 354.375H325.743C339.043 354.15 346.498 354.773 355.387 371.03L357.117 374.109C359.828 378.738 362.259 383.526 364.398 388.446C367.304 395.364 367.304 395.364 373.046 401.02C376.629 404.66 380.023 408.481 383.215 412.469C386.017 416.086 389.062 419.506 392.329 422.708C394.984 425.287 397.441 428.062 399.68 431.01L399.87 431.217C399.98 431.381 400.102 431.537 400.233 431.684C401.79 429.488 401.254 427.308 397.726 420.183L397.622 419.958C394.509 413.541 390.704 405.534 394.266 396.592C396.532 391.023 401.185 386.613 408.587 383.154C410.454 377.654 414.421 373.115 419.621 370.529C428.13 366.309 439.856 367.606 450.199 373.901C459.469 379.557 461.786 387.236 463.343 392.338C464.346 395.641 464.796 396.731 465.799 397.647C466.525 398.385 467.388 398.973 468.341 399.377H468.48C472.243 400.894 475.353 403.685 477.266 407.263C477.531 406.332 478.152 405.543 478.995 405.067C479.512 404.757 480.096 404.575 480.697 404.536C481.299 404.496 481.901 404.602 482.454 404.842L491.845 409.027C496 411.184 499.728 414.079 502.845 417.571L502.932 417.675C503.693 418.436 504.384 419.11 504.99 419.681C505.128 419.353 505.266 418.972 505.422 418.574C507.152 413.974 506.2 412.21 502.776 405.672L501.237 402.68C495.339 390.989 494.319 381.926 498.366 375.198C500.493 371.514 504.903 367.035 513.776 366.551L522.337 366.084C525.949 365.175 529.506 364.06 532.99 362.746C538.75 360.117 542.918 358.232 546.117 353.995C553.226 344.586 550.856 335.056 547.553 321.86L546.654 318.142C546.411 317.104 546.014 315.738 545.46 313.87C543.731 307.765 541.015 298.546 540.929 290.124C540.773 276.288 547.847 270.736 553.675 268.609L560.057 266.274C560.956 265.994 561.926 266.058 562.78 266.454C563.634 266.851 564.309 267.551 564.675 268.418L567.287 274.697C567.525 275.252 567.815 275.785 568.151 276.288C567.503 272.664 567.358 268.969 567.719 265.305C569.742 252.248 577.612 248.598 582.316 246.402C584.158 245.764 585.815 244.683 587.141 243.254C590.064 239.795 595.408 225.959 595.114 221.48L594.336 209.373C594.289 208.714 594.416 208.054 594.704 207.46C594.992 206.865 595.431 206.357 595.978 205.985C596.524 205.614 597.159 205.393 597.818 205.344C598.477 205.295 599.137 205.42 599.732 205.706L606.01 208.681L605.128 206.796C604.263 204.98 603.399 203.337 602.707 201.608C601.703 199.253 600.882 196.824 600.251 194.344C599.974 193.358 599.3 191.006 598.764 189.709C597.968 189.57 596.896 189.415 596.221 189.328L595.46 189.224C591.98 188.905 588.552 188.156 585.256 186.993H585.118C579.739 184.728 566.871 178.813 563.395 172.898C559.919 166.983 559.071 161.102 561.026 155.758C564.277 146.765 573.547 143.531 579.704 141.403L580.725 141.04C581.575 140.77 582.406 140.447 583.215 140.072C586.87 138.127 590.343 135.858 593.592 133.292C599.3 129.037 606.27 123.814 616.249 121.652V121.22C616.249 117.502 616.249 113.662 616.474 109.874L617.044 100.431C617.077 99.8439 617.246 99.2722 617.539 98.7619C617.831 98.2516 618.239 97.8169 618.73 97.4925C619.221 97.1681 619.781 96.963 620.365 96.8937C620.949 96.8244 621.542 96.8928 622.095 97.0934L631.002 100.258C636.087 102.114 640.675 105.121 644.405 109.044L645.945 110.774C646.464 111.347 646.796 112.065 646.896 112.832L647.19 115.08C648.297 123.088 647.19 132.099 645.996 140.798C644.993 148.65 643.454 160.514 645.737 164.492C646.67 165.515 647.748 166.395 648.937 167.104L649.213 167.294C650.803 168.355 652.327 169.51 653.779 170.753C654.523 169.024 655.301 167.208 656.028 165.565C657.913 161.31 660.057 156.502 660.248 153.596C660.421 151.4 659.348 149.446 656.789 145.139C654.331 141.496 652.398 137.525 651.047 133.344C648.764 125.284 650.095 118.401 651.15 112.867C651.479 111.137 651.773 109.529 651.998 107.834C652.131 106.845 652.649 105.949 653.44 105.341C654.23 104.732 655.228 104.459 656.218 104.582L664.865 105.672C665.122 105.031 665.549 104.472 666.101 104.057C666.653 103.643 667.309 103.387 667.996 103.32C668.324 102.334 668.584 101.469 668.722 100.846C668.878 99.9551 668.965 99.053 668.982 98.1484C668.982 97.8543 668.982 97.5431 668.982 97.249C669.224 93.0463 669.552 87.7886 672.32 83.2919C674.349 79.9291 677.37 77.2769 680.967 75.6994C679.12 74.0521 677.493 72.1747 676.124 70.1131C669.95 60.7218 670.417 51.5728 670.936 42.7004L674.724 42.8733L670.936 42.7004L671.334 34.8138C671.379 33.883 671.765 33.0015 672.419 32.3379C673.073 31.6742 673.949 31.2749 674.879 31.2164L681.209 30.8359C682.264 30.8359 683.406 30.7495 684.53 30.8359L681.693 28.086C681.169 27.574 680.803 26.9214 680.64 26.2064C680.478 25.4915 680.525 24.7449 680.777 24.0563L682.506 19.6114C681.745 19.4731 680.777 19.3347 679.445 19.1791C675.087 18.6948 670.642 18.3143 666.353 17.9511L664.623 17.8128C657.895 17.2766 651.306 16.7232 644.924 15.8584C629.999 13.8349 614.346 18.1413 603.866 22.1192C603.226 22.344 602.413 22.7073 601.531 23.105L600.407 23.5893C593.489 26.7024 580.794 32.2368 571.247 27.0483C562.248 29.8976 552.595 29.9338 543.575 27.1521C537.176 25.4226 533.959 24.5924 528.009 24.8864C527.075 24.8864 525.899 25.0594 524.55 25.1977L523.323 25.3188C515.436 26.1663 505.889 27.204 498.625 24.0217C498.435 25.7512 498.245 28.086 498.089 31.0608L497.76 37.1486C497.709 38.0595 497.332 38.9214 496.696 39.576C496.061 40.2305 495.21 40.6337 494.301 40.7114L488.248 41.334C474.412 42.7177 463.758 37.6502 455.232 33.5686C451.261 31.5808 446.933 30.4048 442.503 30.1096L443.177 34.3814C443.326 35.324 443.115 36.288 442.587 37.0825C442.058 37.8769 441.25 38.4437 440.323 38.6706L433.89 40.1926C431.232 40.8219 428.51 41.1412 425.778 41.1438C410.334 41.1438 397.933 30.7668 387.729 22.0154L387.539 21.8598C374.913 11.1541 367.632 6.0175 359.521 8.02373C359.521 8.61176 359.365 9.1998 359.279 9.75324V9.83972V10.4969C358.95 12.6934 358.604 14.9763 358.154 17.2247L356.563 24.7827C356.456 25.2876 356.247 25.7655 355.95 26.1876C355.653 26.6097 355.273 26.9672 354.834 27.2386C354.388 27.5035 353.892 27.674 353.377 27.7395C352.863 27.8049 352.34 27.7639 351.842 27.6191L345.079 25.682C344.644 29.1834 343.67 32.5963 342.191 35.7996C340.168 40.0369 327.594 54.0978 319.362 58.854C319.49 61.4288 319.333 64.0099 318.895 66.5503L318.047 71.7388C317.914 72.5424 317.526 73.282 316.94 73.8486C316.355 74.4152 315.603 74.779 314.796 74.8865L309.607 75.561C306.163 75.9563 302.697 76.1353 299.23 76.0972H294.042C293.52 76.1059 293.002 76.0041 292.522 75.7984C292.042 75.5928 291.611 75.2879 291.257 74.9038C290.323 74.9038 289.303 74.9038 288.49 74.9038C288.386 76.3047 288.334 78.2591 288.317 79.2622V79.7637C288.523 84.5567 287.897 89.3493 286.466 93.9284L285.896 95.5022C283.855 101.158 282.073 104.79 274.775 107.211L273.979 107.505L271.558 108.387C270.468 108.854 269.5 109.304 268.566 109.753L267.891 110.065V110.307C267.837 111.002 267.592 111.668 267.183 112.233C266.774 112.797 266.217 113.238 265.574 113.506L252.776 118.833C249.796 119.987 246.646 120.636 243.453 120.753H242.917C242.033 120.782 241.153 120.892 240.288 121.082C238.538 122.056 236.897 123.216 235.394 124.541H235.307C230.902 128.519 225.596 131.368 219.846 132.842C213.517 134.737 206.766 134.701 200.458 132.739C194.252 130.872 188.708 127.271 184.477 122.361L184.304 122.189C182.937 120.601 181.347 119.22 179.583 118.09C174.466 115.578 169.135 113.529 163.654 111.967C154.263 109.217 142.174 111.621 131.347 118.384C120.52 125.146 113.343 134.503 111.803 143.652C111.596 144.862 111.475 146.194 111.371 147.37C110.921 152.161 110.316 158.698 105.854 164.665C102.9 168.465 99.1285 171.55 94.8196 173.693H94.7331C91.6719 175.423 91.6719 175.423 91.2741 177.014C90.7783 178.435 90.724 179.972 91.1184 181.424C91.7144 181.325 92.2955 181.15 92.8479 180.905L92.9863 180.715C95.961 176.668 100.717 172.171 111.008 173.486C114.613 174.019 117.994 175.56 120.762 177.931C121.61 176.115 122.803 173.053 124.533 168.021V167.934C128.459 156.537 133.37 142.355 147.206 141.455L154.488 140.971C154.992 140.938 155.498 141.007 155.976 141.173C156.453 141.339 156.893 141.599 157.268 141.937C157.644 142.276 157.948 142.686 158.162 143.144C158.377 143.602 158.498 144.098 158.517 144.603L158.811 151.902C159.036 157.298 158.95 162.659 158.811 167.83V169.439C158.811 173.832 158.69 178.363 158.915 182.86C159.365 194.413 157.549 198.719 149.662 204.911L147.051 206.986C146.096 207.89 145.2 208.855 144.37 209.875L143.695 210.653C139.406 215.72 130.499 226.218 117.199 221.947L113.74 220.805C113.166 220.617 112.645 220.295 112.221 219.865C111.797 219.434 111.482 218.909 111.302 218.332L110.195 214.873C109.72 213.455 109.142 212.073 108.465 210.739L108.102 209.978C107.722 209.148 107.307 208.249 106.909 207.35C106.684 210.324 106.632 213.334 106.563 216.464V216.533C106.563 218.885 106.442 221.324 106.338 223.797L106.096 228.899C106.057 229.691 105.771 230.451 105.278 231.071C104.784 231.692 104.109 232.142 103.346 232.358L98.4515 233.776C96.722 234.261 94.9926 234.693 92.969 235.108C89.8732 235.817 86.051 236.665 84.5463 237.927C83.9549 238.764 83.4342 239.65 82.9897 240.573L82.9033 240.729C81.5347 243.619 79.726 246.28 77.5418 248.616C74.6973 251.31 71.2883 253.336 67.5626 254.548C69.667 256.113 71.3588 258.167 72.4917 260.532C77.0403 270.113 73.1316 280.49 63.0139 285.817C56.4937 289.276 47.9672 289.415 39.7175 289.605H38.2301H37.2962C36.7946 297.768 37.2961 301.279 37.5383 302.645C41.1508 302.966 44.7877 302.884 48.3823 302.403C52.6239 302.138 56.8085 301.289 60.8175 299.878C63.7922 298.27 66.5076 295.139 69.465 291.819L71.7134 289.276C72.6234 288.068 73.341 286.726 73.8407 285.298L73.979 284.987C75.0815 282.231 76.541 279.632 78.3201 277.256C82.2807 272.189 86.6736 269.889 91.7238 270.217C92.5088 270.239 93.2903 270.332 94.0586 270.494L95.7881 247.284C95.8538 246.456 96.1895 245.673 96.7437 245.055C97.298 244.437 98.04 244.018 98.8556 243.862C99.6712 243.707 100.515 243.824 101.258 244.196C102 244.567 102.6 245.172 102.966 245.918L114.553 269.785C118.133 277.17 124.93 286.025 128.701 288.014C131.667 289.349 134.847 290.146 138.092 290.366H138.299C142.423 290.783 146.485 291.671 150.406 293.012C154.904 294.848 159.129 297.292 162.962 300.276C164.995 301.855 167.173 303.239 169.465 304.41C172.02 305.107 174.681 305.336 177.317 305.084H177.265C179.341 305.084 181.485 304.963 183.682 305.084C188.971 305.414 194.217 306.242 199.351 307.557C210.385 310.515 216.508 315.461 217.563 322.241C218.376 327.429 216.663 334.762 203.882 339.536C190.306 344.638 177.611 341.732 165.314 338.896C161.008 337.893 157.047 337.011 153.208 336.457L153.588 341.421C153.639 341.975 153.564 342.533 153.37 343.054C153.175 343.575 152.866 344.045 152.464 344.43C152.067 344.821 151.588 345.119 151.061 345.301C150.535 345.484 149.974 345.546 149.42 345.485L140.894 344.586C128.787 343.306 113.222 339.934 106.649 331.2C105.208 329.296 104.14 327.136 103.502 324.835C101.34 324.749 99.0223 324.645 96.7393 324.506C93.2803 324.247 88.1783 323.936 84.1485 323.936C72.3889 324.061 60.7544 326.365 49.8351 330.733C47.5508 334.677 44.96 338.436 42.0869 341.974C40.0461 344.257 27.9568 355.568 23.2698 358.093C19.8107 359.99 15.901 360.911 11.9589 360.757C10.852 363.438 10.4715 371.445 10.3504 374.23V374.385C10.2639 376.634 10.1602 378.813 9.98723 380.664L9.36463 386.388C8.48258 394.482 7.46217 403.683 8.65553 410.498C9.93536 417.761 14.0862 421.999 21.7825 427.793C31.5715 435.091 41.4816 436.855 55.3176 437.426C58.202 437.518 61.0894 437.443 63.9651 437.201H65.0029C75.7085 436.509 89.0257 435.662 99.3336 443.86C108.31 450.985 108.811 459.806 109.123 465.098C109.144 466.328 109.265 467.554 109.486 468.765L111.215 469.353C115.222 470.421 118.904 472.458 121.938 475.285C132.834 486.008 132.212 504.687 129.756 518.523C127.127 533.085 125.397 544.465 127.144 557.367L127.49 560.065C127.694 563.309 128.442 566.496 129.704 569.491C130.442 570.92 131.509 572.153 132.817 573.089C135.038 574.962 137.071 577.047 138.887 579.315C145.84 588.377 146.618 598.045 146.601 605.88ZM683.267 16.948V17.1209V16.948Z" fill="#9753A8"/>
</svg>
