<svg width="76" height="73" viewBox="0 0 76 73" fill="none" xmlns="http://www.w3.org/2000/svg">
<path d="M9.11456 55.5143C9.99278 53.4269 8.79708 52.4983 6.59122 51.5984C1.50744 49.5439 -0.966427 44.1528 0.348842 38.7289C0.616541 37.7455 0.642004 36.7123 0.423061 35.717C-0.982916 29.6602 1.87851 24.2117 7.77867 22.1571C9.42791 21.5819 9.22588 20.756 9.08982 19.5726C8.41776 13.8733 10.8916 8.99178 15.7857 6.93726C17.5903 6.21238 19.1979 5.07347 20.4778 3.61305C24.5514 -0.943872 31.7133 -1.21918 36.6115 2.9515C37.8484 4.00341 38.4463 3.94178 39.6008 2.86932C44.4042 -1.58899 52.7328 -0.668566 56.5055 4.64031C56.992 5.3183 57.462 5.91411 58.3073 6.22639C65.4609 8.84385 67.8811 13.7542 66.9658 19.9177C66.7844 21.1504 67.1266 21.6805 68.3264 22.1736C74.6966 24.791 77.0962 29.4836 75.5418 36.1114C75.3369 37.1167 75.3651 38.1553 75.6243 39.148C77.1292 45.8622 73.0886 50.6287 68.4212 52.0586C66.9864 52.4983 66.4958 53.0078 66.8421 54.635C68.079 60.4945 64.0672 66.1608 58.901 67.4839C57.5074 67.8414 56.4766 68.6262 55.4541 69.5836C50.7001 74.0296 44.1403 74.1488 39.2915 69.8672C38.4051 69.0865 37.8608 68.9714 36.9001 69.8302C31.8658 74.3049 24.8236 73.9762 20.1067 69.1152C19.4663 68.405 18.6326 67.8954 17.7071 67.6483C12.0997 66.2307 8.83006 61.7477 9.11456 55.5143ZM53.6853 40.0397C54.4687 38.507 54.4109 37.5742 52.403 36.9291C47.3604 35.265 44.4289 30.7902 44.7381 25.7813C45.0433 20.8505 48.4819 16.877 53.508 15.6073C55.9818 14.9828 57.7012 15.4882 58.1217 16.9633C58.5835 18.5741 57.7094 19.3794 54.7944 20.0328C52.0732 20.6491 50.2178 22.2516 49.5993 24.9636C49.0097 27.5605 49.6611 29.8945 51.8546 31.5627C54.0481 33.231 56.4642 33.5104 58.9628 32.0887C60.7152 31.0902 62.5912 30.404 64.628 30.4451C65.9845 30.4738 67.0689 31.0779 67.1472 32.6105C67.2255 34.024 66.3226 34.6979 65.0403 34.9527C64.7063 35.0225 64.3559 35.0225 64.0178 35.0801C59.9854 35.7539 57.763 38.885 58.4763 42.8872C59 45.8252 61.9933 48.2701 64.9496 48.1797C68.4542 48.0687 70.9157 45.7348 71.1961 42.2339C70.59 41.9586 70.1406 42.4065 69.6911 42.6448C68.2819 43.368 66.7202 43.7468 65.1351 43.7501C63.8322 43.7501 62.8179 43.1009 62.7272 41.6956C62.6365 40.2903 63.4488 39.4069 64.9166 39.2302C65.2547 39.1891 65.601 39.1891 65.9391 39.1357C68.4996 38.7248 70.8085 36.4977 71.3899 33.8802C71.9135 31.5052 70.8415 29.0275 68.6315 27.4989C65.0403 25.0335 61.6222 25.1156 57.8249 27.9098C56.4807 28.9042 55.2479 28.9535 54.213 27.6879C53.1781 26.4223 53.8007 25.2841 54.9305 24.339C56.5074 23.0135 58.3676 22.0648 60.3688 21.5654C61.1934 21.3477 61.9645 21.1545 62.2201 20.1807C63.6508 14.802 60.0184 10.2492 55.2108 10.5902C52.6421 10.7751 50.3827 11.5681 48.7582 13.7048C47.8387 14.9376 46.6018 15.3279 45.3607 14.3911C44.0084 13.372 44.2393 12.0119 45.167 10.7628C45.6494 10.1094 46.2142 9.50541 46.742 8.88084L51.3722 6.32912C50.229 5.27783 48.7285 4.69751 47.173 4.70513C45.6175 4.71276 44.1227 5.30776 42.99 6.37021L42.9611 6.39076C40.8418 7.75496 39.9182 9.62047 40.5202 12.1434C40.5202 12.4187 40.5202 12.694 40.5202 12.9652C40.479 19.326 40.3924 25.6827 40.4089 32.0394C40.4089 36.5347 42.2973 38.5645 46.8368 39.2631C48.2428 39.4808 49.4962 40.0356 49.3107 41.6751C49.1251 43.3146 47.8387 43.9227 46.3049 43.7707C44.8675 43.6699 43.4652 43.2814 42.1818 42.6284C40.9037 41.9298 40.3388 42.2175 40.3512 43.7583C40.3965 49.8438 40.3883 55.9293 40.3924 62.0189C40.3924 64.735 41.5056 66.7977 44.0661 67.8743C46.8121 69.033 49.4055 68.7495 51.7763 66.8183C54.58 64.546 55.0047 61.7559 53.7677 58.5345C53.1987 57.0675 53.3554 55.7403 55.0047 55.165C56.7529 54.5528 57.4785 55.7608 57.9898 57.1538C58.4545 58.2968 58.7423 59.5036 58.8433 60.7328C58.868 61.2423 58.7484 61.9285 59.4453 62.1052C60.072 62.2655 60.4389 61.6943 60.81 61.3368C61.7342 60.358 62.329 59.1162 62.5116 57.7846C62.6941 56.4529 62.4553 55.0977 61.8284 53.9077C59.9441 50.5054 56.2581 49.3877 52.2051 50.9615C49.7024 51.9395 48.853 53.1886 48.7458 55.8554C48.684 57.462 49.088 58.97 49.4797 60.4945C49.8137 61.7847 49.5086 62.8489 48.1809 63.342C46.7214 63.8844 45.7772 63.1037 45.2247 61.8628C44.6174 60.3245 44.3001 58.6877 44.2887 57.0347C44.0207 52.1572 46.1235 48.6563 50.2672 46.7826C51.5536 46.2032 53.5946 46.5155 54.0605 45.2705C54.5264 44.0254 53.842 42.3531 53.6482 40.8656C53.6647 40.5903 53.677 40.315 53.6853 40.0397ZM4.20806 41.8066C4.96672 43.2242 4.96672 44.3501 5.67177 45.2705C7.6055 47.7975 10.7019 48.8042 13.5057 47.7153C14.8689 47.21 16.0248 46.2671 16.7914 45.0353C17.558 43.8034 17.8917 42.3524 17.7401 40.9108C17.3937 37.755 15.1178 35.5033 11.7987 35.076C10.2443 34.8787 8.87954 34.4637 8.97437 32.5448C9.05271 31.0162 10.3391 30.3177 12.3924 30.5149C14.2849 30.6957 15.9218 31.5463 17.604 32.3352C20.3995 33.6378 23.1743 33.0338 25.0751 30.8395C26.0104 29.7805 26.5791 28.4498 26.6972 27.0439C26.8152 25.638 26.4764 24.2316 25.7306 23.0324C24.4319 20.8957 22.3662 20.156 20.0325 19.852C18.7379 19.6753 17.8308 18.9562 17.9421 17.5304C18.0534 16.1045 18.9234 15.3074 20.416 15.3854C21.2369 15.3976 22.0545 15.4912 22.8568 15.6649C25.2369 16.2711 27.3552 17.6308 28.8935 19.5395C30.4318 21.4482 31.307 23.8029 31.3875 26.2497C31.5648 30.9628 28.4519 35.3759 23.6691 36.9538C22.3167 37.4017 21.6818 37.9399 22.1229 39.4192C22.5497 41.019 22.5082 42.7072 22.0034 44.2843C21.7312 45.2582 21.9374 45.7389 23.0589 45.9608C25.3083 46.34 27.3905 47.3869 29.0333 48.9645C32.2534 52.1285 31.5648 56.1266 31.4123 59.948C31.3133 62.4586 29.9362 63.7118 28.2664 63.4119C26.6625 63.1242 26.2625 61.834 26.9676 59.1919C28.4395 53.6365 25.7018 50.152 19.9583 50.304C18.7073 50.2891 17.4811 50.6526 16.4417 51.3466C15.4023 52.0406 14.5985 53.0325 14.1365 54.1912C13.5944 55.3123 13.3979 56.5684 13.5718 57.8007C13.7458 59.033 14.2823 60.1864 15.1137 61.1149C15.526 61.5957 15.9383 62.1792 16.598 62.0723C17.4515 61.9408 17.1629 61.0903 17.2577 60.5479C17.5257 59.0645 17.7318 57.5647 18.4946 56.2252C19.0512 55.2226 19.9459 54.7295 21.0839 55.0746C21.5914 55.2097 22.029 55.5305 22.3095 55.9731C22.59 56.4156 22.6927 56.9473 22.5971 57.462C22.4336 58.3332 22.2119 59.1925 21.9333 60.0342C20.919 63.983 23.3846 67.5127 27.7427 68.3715C31.6803 69.1399 35.5478 66.5717 35.6921 62.6188C35.9271 56.2622 35.7704 49.8808 35.7704 43.5365C35.7704 42.3695 35.4117 41.8928 34.1583 42.5462C32.813 43.2461 31.3254 43.6312 29.8084 43.6721C28.3117 43.7337 26.9552 43.4337 26.7614 41.671C26.5676 39.9082 27.8747 39.5219 29.2353 39.2507C29.4373 39.2138 29.6476 39.2138 29.8496 39.1809C33.4244 38.6138 35.6591 36.2306 35.6921 32.6393C35.7539 25.5265 35.6714 18.4138 35.6921 11.2969C35.6921 8.5932 34.3397 6.77701 32.1421 5.47856C29.7795 4.0897 26.4646 4.51293 24.8318 6.40719C26.9676 7.38925 29.058 8.40829 30.567 10.2697C31.5937 11.5353 32.3524 12.8173 30.8928 14.2308C29.7754 15.3197 28.5797 14.9992 27.1243 13.3186C25.005 10.8778 20.4531 9.80948 17.6947 11.1079C14.7302 12.505 13.2377 15.5868 13.7036 19.1699C13.8685 20.4683 14.3756 21.2778 15.7651 21.5737C17.7805 22.0407 19.6478 22.9994 21.1994 24.3637C22.3909 25.3663 22.9723 26.5744 21.822 27.9098C20.7706 29.1425 19.5378 28.8466 18.3462 27.9673C17.6519 27.4105 16.9032 26.9246 16.1115 26.5168C12.813 25.0047 9.74952 25.7731 7.04064 27.8728C5.09454 29.3849 4.19157 31.5052 4.75644 34.061C5.52333 37.5496 7.9436 38.9467 11.2668 39.259C12.5244 39.3781 13.3284 40.1054 13.3778 41.3628C13.4273 43.1338 12.2687 43.7008 10.6813 43.7132C8.50434 43.7337 6.59947 42.7722 4.19982 41.8066H4.20806Z" fill="white"/>
</svg>
