<svg width="177" height="41" viewBox="0 0 177 41" fill="none" xmlns="http://www.w3.org/2000/svg">
<path d="M0 2.44201H4.43461V28.7043H21.2418V32.4316H0V2.44201Z" fill="white"/>
<path d="M33.5662 29.0899C36.3748 29.0899 38.6365 28.1759 40.3512 26.348L42.6572 29.0042C41.6224 30.2038 40.3068 31.1177 38.7104 31.7461C37.1435 32.3744 35.3844 32.6886 33.4332 32.6886C30.9498 32.6886 28.7473 32.2031 26.8256 31.232C24.9039 30.2323 23.411 28.8471 22.3466 27.0763C21.3119 25.3055 20.7945 23.3062 20.7945 21.0784C20.7945 18.8791 21.2971 16.8941 22.3023 15.1233C23.337 13.3525 24.7413 11.9815 26.5152 11.0105C28.3186 10.0108 30.3437 9.51097 32.5906 9.51097C34.7192 9.51097 36.6557 9.98224 38.3999 10.9248C40.1442 11.8387 41.5337 13.1383 42.5685 14.8234C43.6032 16.5085 44.1354 18.4507 44.1649 20.6499L25.4952 24.163C26.0865 25.7339 27.0769 26.9478 28.4664 27.8046C29.8855 28.6614 31.5854 29.0899 33.5662 29.0899ZM32.5906 12.9812C31.1124 12.9812 29.782 13.3096 28.5994 13.9666C27.4464 14.6235 26.5447 15.5517 25.8943 16.7513C25.2439 17.9223 24.9187 19.2933 24.9187 20.8642V21.2926L39.9521 18.5507C39.5677 16.8941 38.7104 15.5517 37.38 14.5235C36.0496 13.4953 34.4531 12.9812 32.5906 12.9812Z" fill="white"/>
<path d="M44.6663 41C43.6315 41 42.6707 40.8858 41.7838 40.6573C40.8968 40.4288 40.1577 40.086 39.5665 39.6291L40.9412 36.4587C41.8281 37.1728 42.9811 37.5298 44.4002 37.5298C45.5236 37.5298 46.381 37.187 46.9723 36.5016C47.5931 35.8447 47.9035 34.8593 47.9035 33.5455V9.72518H52.1608V33.4598C52.1608 35.8018 51.5103 37.644 50.2095 38.9864C48.9087 40.3288 47.061 41 44.6663 41ZM50.0321 5.35528C49.2044 5.35528 48.5096 5.09822 47.9479 4.58412C47.4157 4.07001 47.1496 3.44166 47.1496 2.69906C47.1496 1.95646 47.4157 1.32811 47.9479 0.814002C48.5096 0.271334 49.2044 0 50.0321 0C50.8599 0 51.5399 0.257054 52.0721 0.77116C52.6338 1.2567 52.9146 1.87078 52.9146 2.61338C52.9146 3.38454 52.6338 4.04145 52.0721 4.58412C51.5399 5.09822 50.8599 5.35528 50.0321 5.35528Z" fill="white"/>
<path d="M67.9116 32.6886C65.576 32.6886 63.477 32.1888 61.6145 31.1891C59.7519 30.1895 58.2885 28.8185 57.2242 27.0763C56.1894 25.3055 55.6721 23.3062 55.6721 21.0784C55.6721 18.8506 56.1894 16.8656 57.2242 15.1233C58.2885 13.3525 59.7519 11.9815 61.6145 11.0105C63.477 10.0108 65.576 9.51097 67.9116 9.51097C70.2472 9.51097 72.3314 10.0108 74.1644 11.0105C76.027 11.9815 77.4756 13.3525 78.5103 15.1233C79.5746 16.8656 80.1068 18.8506 80.1068 21.0784C80.1068 23.3062 79.5746 25.3055 78.5103 27.0763C77.4756 28.8185 76.027 30.1895 74.1644 31.1891C72.3314 32.1888 70.2472 32.6886 67.9116 32.6886ZM67.9116 29.0899C69.4194 29.0899 70.7645 28.7614 71.9471 28.1045C73.1592 27.419 74.1053 26.4765 74.7853 25.2769C75.4652 24.0488 75.8052 22.6493 75.8052 21.0784C75.8052 19.5075 75.4652 18.1223 74.7853 16.9227C74.1053 15.6945 73.1592 14.752 71.9471 14.0951C70.7645 13.4382 69.4194 13.1097 67.9116 13.1097C66.4038 13.1097 65.0439 13.4382 63.8318 14.0951C62.6492 14.752 61.7032 15.6945 60.9936 16.9227C60.3136 18.1223 59.9736 19.5075 59.9736 21.0784C59.9736 22.6493 60.3136 24.0488 60.9936 25.2769C61.7032 26.4765 62.6492 27.419 63.8318 28.1045C65.0439 28.7614 66.4038 29.0899 67.9116 29.0899Z" fill="white"/>
<path d="M105.462 9.72518V29.3469C105.462 33.317 104.502 36.2445 102.58 38.1296C100.658 40.0432 97.7757 41 93.9324 41C91.8334 41 89.823 40.7001 87.9013 40.1003C86.0092 39.5291 84.4571 38.7008 83.245 37.6155L85.3292 34.4451C86.364 35.3591 87.6057 36.0731 89.0543 36.5873C90.5325 37.1014 92.0846 37.3584 93.7107 37.3584C96.2827 37.3584 98.1748 36.7301 99.387 35.4734C100.599 34.2452 101.205 32.3459 101.205 29.7753V28.1045C100.348 29.1898 99.2392 30.0324 97.8792 30.6322C96.5193 31.2034 95.0411 31.489 93.4446 31.489C90.3108 31.489 87.8422 30.6607 86.0388 29.0042C84.2354 27.3476 83.3337 24.8913 83.3337 21.6353V9.72518H87.5909V21.1641C87.5909 23.3347 88.1378 24.9913 89.2317 26.1338C90.3256 27.2476 91.8925 27.8046 93.9324 27.8046C96.1793 27.8046 97.9531 27.1477 99.2539 25.8339C100.555 24.52 101.205 22.6635 101.205 20.2644V9.72518H105.462Z" fill="white"/>
<path d="M123.589 9.51097C125.866 9.51097 127.906 9.99652 129.709 10.9676C131.512 11.9387 132.917 13.2954 133.922 15.0376C134.957 16.7799 135.474 18.7935 135.474 21.0784C135.474 23.3633 134.957 25.3912 133.922 27.162C132.917 28.9042 131.512 30.2609 129.709 31.232C127.906 32.2031 125.866 32.6886 123.589 32.6886C121.845 32.6886 120.248 32.3602 118.8 31.7032C117.351 31.0463 116.154 30.0895 115.208 28.8328V32.4316H111.128V0.642633H115.385V13.1526C116.331 11.953 117.514 11.0533 118.933 10.4535C120.352 9.82515 121.904 9.51097 123.589 9.51097ZM123.234 29.0899C124.742 29.0899 126.087 28.7614 127.27 28.1045C128.482 27.419 129.428 26.4765 130.108 25.2769C130.818 24.0488 131.172 22.6493 131.172 21.0784C131.172 19.5075 130.818 18.1223 130.108 16.9227C129.428 15.6945 128.482 14.752 127.27 14.0951C126.087 13.4382 124.742 13.1097 123.234 13.1097C121.756 13.1097 120.411 13.4382 119.199 14.0951C117.987 14.752 117.041 15.6945 116.361 16.9227C115.681 18.1223 115.341 19.5075 115.341 21.0784C115.341 22.6493 115.681 24.0488 116.361 25.2769C117.041 26.4765 117.987 27.419 119.199 28.1045C120.411 28.7614 121.756 29.0899 123.234 29.0899Z" fill="white"/>
<path d="M148.984 32.6886C146.648 32.6886 144.549 32.1888 142.686 31.1891C140.824 30.1895 139.361 28.8185 138.296 27.0763C137.261 25.3055 136.744 23.3062 136.744 21.0784C136.744 18.8506 137.261 16.8656 138.296 15.1233C139.361 13.3525 140.824 11.9815 142.686 11.0105C144.549 10.0108 146.648 9.51097 148.984 9.51097C151.319 9.51097 153.403 10.0108 155.236 11.0105C157.099 11.9815 158.548 13.3525 159.582 15.1233C160.647 16.8656 161.179 18.8506 161.179 21.0784C161.179 23.3062 160.647 25.3055 159.582 27.0763C158.548 28.8185 157.099 30.1895 155.236 31.1891C153.403 32.1888 151.319 32.6886 148.984 32.6886ZM148.984 29.0899C150.491 29.0899 151.837 28.7614 153.019 28.1045C154.231 27.419 155.177 26.4765 155.857 25.2769C156.537 24.0488 156.877 22.6493 156.877 21.0784C156.877 19.5075 156.537 18.1223 155.857 16.9227C155.177 15.6945 154.231 14.752 153.019 14.0951C151.837 13.4382 150.491 13.1097 148.984 13.1097C147.476 13.1097 146.116 13.4382 144.904 14.0951C143.721 14.752 142.775 15.6945 142.066 16.9227C141.386 18.1223 141.046 19.5075 141.046 21.0784C141.046 22.6493 141.386 24.0488 142.066 25.2769C142.775 26.4765 143.721 27.419 144.904 28.1045C146.116 28.7614 147.476 29.0899 148.984 29.0899Z" fill="white"/>
<path d="M177 31.1034C176.379 31.6176 175.61 32.0174 174.694 32.303C173.778 32.5601 172.831 32.6886 171.856 32.6886C169.491 32.6886 167.658 32.0745 166.357 30.8464C165.056 29.6183 164.406 27.8617 164.406 25.5768V4.75549H168.663V9.72518H175.404V13.1097H168.663V25.4054C168.663 26.6336 168.973 27.5761 169.594 28.233C170.245 28.8899 171.161 29.2184 172.344 29.2184C173.644 29.2184 174.753 28.8614 175.67 28.1473L177 31.1034Z" fill="white"/>
</svg>
